<svg width="16" height="16" viewBox="0 0 16 16" fill="none" xmlns="http://www.w3.org/2000/svg">
<path fill-rule="evenodd" clip-rule="evenodd" d="M10.9815 3.33337H14.6665C15.0347 3.33337 15.3332 3.63185 15.3332 4.00004C15.3332 4.36823 15.0347 4.66671 14.6665 4.66671H13.9384L13.2741 11.5317C13.2268 12.0204 13.1876 12.4252 13.1295 12.7546C13.069 13.098 12.98 13.4109 12.8063 13.7016C12.5354 14.1548 12.136 14.5174 11.6588 14.7434C11.3527 14.8884 11.0326 14.9467 10.6851 14.974C10.3516 15.0001 9.94488 15 9.45397 15H6.54578C6.05487 15 5.64807 15.0001 5.3146 14.974C4.96704 14.9467 4.64698 14.8884 4.34092 14.7434C3.8637 14.5174 3.46432 14.1548 3.19339 13.7016C3.01964 13.4109 2.93071 13.098 2.87015 12.7546C2.81205 12.4252 2.77287 12.0204 2.72559 11.5317L2.06124 4.66671H1.33317C0.964981 4.66671 0.666504 4.36823 0.666504 4.00004C0.666504 3.63185 0.964981 3.33337 1.33317 3.33337H5.01815C5.18398 1.83341 6.45567 0.666748 7.99984 0.666748C9.54401 0.666748 10.8157 1.83341 10.9815 3.33337ZM5.65906 4.66671H3.4008L4.05022 11.3774C4.10065 11.8984 4.13525 12.2511 4.18322 12.523C4.22975 12.7868 4.28089 12.9222 4.33785 13.0175C4.47331 13.2441 4.673 13.4254 4.91161 13.5384C5.01193 13.5859 5.15159 13.6238 5.41866 13.6447C5.69395 13.6662 6.04829 13.6667 6.57178 13.6667H9.4279C9.95138 13.6667 10.3057 13.6662 10.581 13.6447C10.8481 13.6238 10.9877 13.5859 11.0881 13.5384C11.3267 13.4254 11.5264 13.2441 11.6618 13.0175C11.7188 12.9222 11.7699 12.7868 11.8165 12.523C11.8644 12.2511 11.899 11.8984 11.9495 11.3774L12.5989 4.66671H10.3406C10.3381 4.66673 10.3357 4.66675 10.3332 4.66675H5.6665C5.66402 4.66675 5.66154 4.66673 5.65906 4.66671ZM9.63316 3.33337C9.47872 2.57265 8.80614 2.00008 7.99984 2.00008C7.19353 2.00008 6.52096 2.57265 6.36652 3.33337H9.63316Z" fill="#3B3737"/>
</svg>
