<svg width="32" height="32" viewBox="0 0 32 32" fill="none" xmlns="http://www.w3.org/2000/svg">
<path d="M11.1918 11.0974C11.5823 10.7069 12.2155 10.7069 12.606 11.0974L20.997 19.4884C21.3875 19.8789 21.3875 20.5121 20.997 20.9026C20.6065 21.2931 19.9733 21.2931 19.5828 20.9026L11.1918 12.5116C10.8013 12.1211 10.8013 11.4879 11.1918 11.0974Z" fill="#E81224"/>
<path fill-rule="evenodd" clip-rule="evenodd" d="M7.75056 24.2496C3.19444 19.6935 3.19444 12.3065 7.75056 7.75042C12.3067 3.1943 19.6936 3.1943 24.2497 7.75042C28.8058 12.3065 28.8058 19.6935 24.2497 24.2496C19.6936 28.8057 12.3067 28.8057 7.75056 24.2496ZM9.16477 9.16463C5.3897 12.9397 5.3897 19.0603 9.16477 22.8354C12.9398 26.6104 19.0604 26.6104 22.8355 22.8354C26.6106 19.0603 26.6106 12.9397 22.8355 9.16463C19.0604 5.38957 12.9398 5.38957 9.16477 9.16463Z" fill="#E81224"/>
<path d="M11.0974 20.8084C10.7069 20.4179 10.7069 19.7847 11.0974 19.3942L19.4884 11.0032C19.8789 10.6127 20.5121 10.6127 20.9026 11.0032C21.2931 11.3937 21.2931 12.0269 20.9026 12.4174L12.5116 20.8084C12.1211 21.199 11.4879 21.199 11.0974 20.8084Z" fill="#E81224"/>
<path fill-rule="evenodd" clip-rule="evenodd" d="M24.2496 24.2497C19.6935 28.8058 12.3065 28.8058 7.75042 24.2497C3.1943 19.6936 3.1943 12.3066 7.75042 7.75053C12.3065 3.19442 19.6935 3.19442 24.2496 7.75053C28.8057 12.3066 28.8057 19.6936 24.2496 24.2497ZM9.16463 22.8355C12.9397 26.6105 19.0603 26.6105 22.8354 22.8355C26.6104 19.0604 26.6104 12.9398 22.8354 9.16475C19.0603 5.38968 12.9397 5.38968 9.16463 9.16475C5.38957 12.9398 5.38957 19.0604 9.16463 22.8355Z" fill="#E81224"/>
</svg>
