<svg width="32" height="32" viewBox="0 0 32 32" fill="none" xmlns="http://www.w3.org/2000/svg">
<path d="M9.1335 15.9334C9.1335 15.3811 9.58121 14.9334 10.1335 14.9334H22.0002C22.5524 14.9334 23.0002 15.3811 23.0002 15.9334C23.0002 16.4857 22.5524 16.9334 22.0002 16.9334H10.1335C9.58121 16.9334 9.1335 16.4857 9.1335 15.9334Z" fill="#3B3737"/>
<path fill-rule="evenodd" clip-rule="evenodd" d="M16.0002 27.6667C9.55684 27.6667 4.3335 22.4434 4.3335 16.0001C4.3335 9.55676 9.55684 4.33341 16.0002 4.33341C22.4435 4.33341 27.6668 9.55676 27.6668 16.0001C27.6668 22.4434 22.4435 27.6667 16.0002 27.6667ZM6.3335 16.0001C6.3335 21.3388 10.6614 25.6667 16.0002 25.6667C21.3389 25.6667 25.6668 21.3388 25.6668 16.0001C25.6668 10.6613 21.3389 6.33341 16.0002 6.33341C10.6614 6.33341 6.3335 10.6613 6.3335 16.0001Z" fill="#3B3737"/>
</svg>
