<svg width="20" height="20" viewBox="0 0 20 20" fill="none" xmlns="http://www.w3.org/2000/svg">
<path d="M9.225 10.165C9.62518 9.8186 9.94616 9.39016 10.1662 8.90877C10.3861 8.42737 10.5 7.90428 10.5 7.375C10.5 6.38044 10.1049 5.42661 9.40165 4.72335C8.69839 4.02009 7.74456 3.625 6.75 3.625C5.75544 3.625 4.80161 4.02009 4.09835 4.72335C3.39509 5.42661 3 6.38044 3 7.375C2.99999 7.90428 3.11385 8.42737 3.33384 8.90877C3.55384 9.39016 3.87482 9.8186 4.275 10.165C3.2251 10.6404 2.33435 11.4081 1.70924 12.3764C1.08412 13.3447 0.751104 14.4725 0.75 15.625C0.75 15.8239 0.829018 16.0147 0.96967 16.1553C1.11032 16.296 1.30109 16.375 1.5 16.375C1.69891 16.375 1.88968 16.296 2.03033 16.1553C2.17098 16.0147 2.25 15.8239 2.25 15.625C2.25 14.4315 2.72411 13.2869 3.56802 12.443C4.41193 11.5991 5.55653 11.125 6.75 11.125C7.94347 11.125 9.08807 11.5991 9.93198 12.443C10.7759 13.2869 11.25 14.4315 11.25 15.625C11.25 15.8239 11.329 16.0147 11.4697 16.1553C11.6103 16.296 11.8011 16.375 12 16.375C12.1989 16.375 12.3897 16.296 12.5303 16.1553C12.671 16.0147 12.75 15.8239 12.75 15.625C12.7489 14.4725 12.4159 13.3447 11.7908 12.3764C11.1657 11.4081 10.2749 10.6404 9.225 10.165V10.165ZM6.75 9.625C6.30499 9.625 5.86998 9.49304 5.49997 9.24581C5.12996 8.99857 4.84157 8.64717 4.67127 8.23604C4.50097 7.8249 4.45642 7.3725 4.54323 6.93605C4.63005 6.49959 4.84434 6.09868 5.15901 5.78401C5.47368 5.46934 5.87459 5.25505 6.31105 5.16823C6.7475 5.08142 7.1999 5.12597 7.61104 5.29627C8.02217 5.46657 8.37357 5.75496 8.62081 6.12497C8.86804 6.49498 9 6.92999 9 7.375C9 7.97174 8.76295 8.54403 8.34099 8.96599C7.91903 9.38795 7.34674 9.625 6.75 9.625ZM14.055 9.865C14.535 9.3245 14.8485 8.65679 14.9579 7.94225C15.0672 7.22772 14.9677 6.49681 14.6713 5.8375C14.375 5.17819 13.8943 4.6186 13.2874 4.22607C12.6804 3.83354 11.9729 3.62481 11.25 3.625C11.0511 3.625 10.8603 3.70402 10.7197 3.84467C10.579 3.98532 10.5 4.17609 10.5 4.375C10.5 4.57391 10.579 4.76468 10.7197 4.90533C10.8603 5.04598 11.0511 5.125 11.25 5.125C11.8467 5.125 12.419 5.36205 12.841 5.78401C13.2629 6.20597 13.5 6.77826 13.5 7.375C13.4989 7.76893 13.3945 8.15568 13.197 8.49657C12.9996 8.83746 12.7162 9.12054 12.375 9.3175C12.2638 9.38164 12.1709 9.47325 12.1053 9.58356C12.0396 9.69386 12.0034 9.81918 12 9.9475C11.9969 10.0748 12.0262 10.2008 12.0852 10.3137C12.1443 10.4265 12.2311 10.5225 12.3375 10.5925L12.63 10.7875L12.7275 10.84C13.6315 11.2688 14.3942 11.947 14.9257 12.7947C15.4572 13.6425 15.7354 14.6245 15.7275 15.625C15.7275 15.8239 15.8065 16.0147 15.9472 16.1553C16.0878 16.296 16.2786 16.375 16.4775 16.375C16.6764 16.375 16.8672 16.296 17.0078 16.1553C17.1485 16.0147 17.2275 15.8239 17.2275 15.625C17.2336 14.4741 16.9454 13.3407 16.3901 12.3325C15.8348 11.3244 15.031 10.475 14.055 9.865V9.865Z" fill="#3B3737"/>
<path d="M18.3333 8.66667H19.1667C19.3877 8.66667 19.5996 8.75446 19.7559 8.91075C19.9122 9.06703 20 9.27899 20 9.5C20 9.72101 19.9122 9.93298 19.7559 10.0893C19.5996 10.2455 19.3877 10.3333 19.1667 10.3333H18.3333V11.1667C18.3333 11.3877 18.2455 11.5996 18.0893 11.7559C17.933 11.9122 17.721 12 17.5 12C17.279 12 17.067 11.9122 16.9107 11.7559C16.7545 11.5996 16.6667 11.3877 16.6667 11.1667V10.3333H15.8333C15.6123 10.3333 15.4004 10.2455 15.2441 10.0893C15.0878 9.93298 15 9.72101 15 9.5C15 9.27899 15.0878 9.06703 15.2441 8.91075C15.4004 8.75446 15.6123 8.66667 15.8333 8.66667H16.6667V7.83333C16.6667 7.61232 16.7545 7.40036 16.9107 7.24408C17.067 7.0878 17.279 7 17.5 7C17.721 7 17.933 7.0878 18.0893 7.24408C18.2455 7.40036 18.3333 7.61232 18.3333 7.83333V8.66667Z" fill="#3B3737"/>
</svg>
