<svg width="20" height="20" viewBox="0 0 20 20" fill="none" xmlns="http://www.w3.org/2000/svg">
<path d="M10.5959 3.125C8.71073 3.125 7.18249 4.65324 7.18249 6.53842C7.18249 8.42361 8.71073 9.95185 10.5959 9.95185C12.4811 9.95185 14.0093 8.42361 14.0093 6.53842C14.0093 4.65324 12.4811 3.125 10.5959 3.125Z" fill="#3B3737"/>
<path d="M6.95493 11.7723C5.06975 11.7723 3.5415 13.3006 3.5415 15.1858V16.2674C3.5415 16.953 4.03839 17.5376 4.71506 17.6481C8.60985 18.284 12.582 18.284 16.4768 17.6481C17.1534 17.5376 17.6503 16.953 17.6503 16.2674V15.1858C17.6503 13.3006 16.1221 11.7723 14.2369 11.7723H13.9266C13.7587 11.7723 13.5918 11.7989 13.4322 11.851L12.6443 12.1083C11.3133 12.5429 9.87852 12.5429 8.54748 12.1083L7.75965 11.851C7.60001 11.7989 7.43314 11.7723 7.2652 11.7723H6.95493Z" fill="#3B3737"/>
</svg>
