<svg width="20" height="20" viewBox="0 0 20 20" fill="none" xmlns="http://www.w3.org/2000/svg">
<path d="M8.75 12.5C8.75 12.8452 8.47018 13.125 8.125 13.125C7.77982 13.125 7.5 12.8452 7.5 12.5C7.5 12.1548 7.77982 11.875 8.125 11.875C8.47018 11.875 8.75 12.1548 8.75 12.5Z" fill="#3B3737"/>
<path d="M12.5 12.5C12.5 12.8452 12.2202 13.125 11.875 13.125C11.5298 13.125 11.25 12.8452 11.25 12.5C11.25 12.1548 11.5298 11.875 11.875 11.875C12.2202 11.875 12.5 12.1548 12.5 12.5Z" fill="#3B3737"/>
<path d="M9.13866 14.0625C8.75142 14.0625 8.4375 14.3764 8.4375 14.7637C8.4375 14.9546 8.51536 15.1372 8.65308 15.2695L8.79435 15.4051C9.05007 15.6506 9.36201 15.8029 9.6875 15.862V16.5625C9.6875 16.7351 9.82741 16.875 10 16.875C10.1726 16.875 10.3125 16.7351 10.3125 16.5625V15.862C10.638 15.8029 10.9499 15.6506 11.2056 15.4051L11.3469 15.2695C11.4846 15.1372 11.5625 14.9546 11.5625 14.7637C11.5625 14.3764 11.2486 14.0625 10.8613 14.0625H9.13866Z" fill="#3B3737"/>
<path fill-rule="evenodd" clip-rule="evenodd" d="M10.2404 1.36461C10.1832 1.29427 10.0985 1.25247 10.0083 1.25011C9.91811 1.24774 9.83135 1.28504 9.77066 1.35229L8.38906 2.88293L7.29124 2.23083C7.14716 2.14524 6.96165 2.1901 6.87185 2.33224L6.17975 3.42773H4.10498C3.94588 3.42773 3.81256 3.54893 3.79632 3.70834L3.60171 5.61894L2.08079 6.38352C1.95996 6.44427 1.89201 6.57676 1.91277 6.71116L2.18851 8.4966L1.35953 9.83456C1.29177 9.94394 1.29765 10.084 1.37434 10.1872L1.37519 10.1884L1.37963 10.1945C1.38375 10.2002 1.39013 10.2091 1.39842 10.2209C1.41501 10.2445 1.43921 10.2796 1.46832 10.3241C1.52678 10.4134 1.6039 10.5384 1.679 10.6816C1.8381 10.985 1.95321 11.3057 1.93411 11.5365C1.93098 11.5744 1.90946 11.6566 1.85618 11.7946C1.80589 11.9248 1.73929 12.0755 1.66556 12.2421L1.66063 12.2532C1.5435 12.5178 1.40849 12.8228 1.32793 13.0914C1.2871 13.2275 1.25456 13.3721 1.25044 13.5088C1.24644 13.6414 1.26795 13.814 1.38773 13.954C1.44126 14.0166 1.51721 14.0552 1.59897 14.0616L3.20831 14.1863L2.72742 15.5182C2.69158 15.6175 2.70795 15.7283 2.77094 15.8127C2.83393 15.8971 2.93501 15.9438 3.03965 15.9368L4.93059 15.8098C5.41646 17.5168 6.97631 18.75 8.80788 18.75H11.1926C12.9865 18.75 14.5196 17.5671 15.0385 15.9147L16.5799 16.3924C16.6784 16.4229 16.7855 16.4022 16.8657 16.3372C16.946 16.2721 16.989 16.1712 16.9804 16.0678L16.8478 14.4655L18.444 14.1139C18.5095 14.0995 18.5685 14.0641 18.6123 14.0131C18.7387 13.866 18.755 13.68 18.7489 13.5447C18.7424 13.4009 18.7072 13.2456 18.6633 13.0972C18.5761 12.8032 18.4332 12.4693 18.3127 12.1877L18.3085 12.1779C18.2391 12.0157 18.1777 11.872 18.1322 11.752C18.1095 11.6923 18.0926 11.6429 18.0812 11.6035C18.0755 11.5839 18.0717 11.5687 18.0694 11.5572C18.0672 11.5466 18.0668 11.5418 18.0668 11.5418C18.0514 11.3069 18.1686 10.9835 18.3263 10.6803C18.4009 10.5368 18.4771 10.4117 18.5348 10.3223C18.5636 10.2778 18.5874 10.2426 18.6038 10.219L18.6136 10.205L18.6223 10.1926L18.6267 10.1865L18.6275 10.1854C18.7028 10.0823 18.7082 9.94317 18.6409 9.83456L17.812 8.4966L18.0877 6.71116C18.1085 6.57676 18.0405 6.44427 17.9197 6.38352L16.3987 5.6189L16.2041 3.71796C16.1879 3.55913 16.0554 3.43819 15.8968 3.4375L13.8212 3.42847L13.1286 2.33224C13.0419 2.19492 12.865 2.14766 12.7221 2.2236L11.476 2.88567L10.2404 1.36461ZM7.00736 10.4577C7.81631 9.78282 8.85749 9.375 10 9.375C11.1425 9.375 12.1837 9.78282 12.9926 10.4577L13.3407 10.7481L13.4883 10.3195C13.6151 9.95133 13.9647 9.6875 14.375 9.6875C14.8928 9.6875 15.3125 10.1072 15.3125 10.625C15.3125 11.1141 14.9378 11.516 14.46 11.5587L14.0082 11.5991L14.2069 12.0069C14.5486 12.7081 14.7196 13.5058 14.6668 14.3449L14.6316 14.9035C14.5176 16.7145 13.0155 18.125 11.2009 18.125H8.79909C6.98448 18.125 5.48241 16.7145 5.36839 14.9035L5.33321 14.3449C5.28038 13.5058 5.45138 12.7081 5.79309 12.0069L5.99179 11.5991L5.54002 11.5587C5.06223 11.516 4.6875 11.1141 4.6875 10.625C4.6875 10.1072 5.10723 9.6875 5.625 9.6875C6.03535 9.6875 6.38489 9.95133 6.5117 10.3195L6.65931 10.7481L7.00736 10.4577Z" fill="#3B3737"/>
</svg>
