<svg width="20" height="20" viewBox="0 0 20 20" fill="none" xmlns="http://www.w3.org/2000/svg">
<path d="M16.1998 4.44997L16.1498 4.39163C15.369 3.53771 14.419 2.85575 13.3601 2.38918C12.3013 1.9226 11.1569 1.68164 9.99982 1.68164C8.84274 1.68164 7.69835 1.9226 6.63951 2.38918C5.58068 2.85575 4.63061 3.53771 3.84982 4.39163L3.79982 4.44997C2.89625 5.45607 2.2511 6.66695 1.92006 7.9781C1.58902 9.28924 1.58203 10.6612 1.89969 11.9757C2.21736 13.2901 2.85014 14.5075 3.7434 15.5228C4.63667 16.538 5.76359 17.3207 7.0269 17.8031C8.2902 18.2855 9.65194 18.4533 10.9946 18.2919C12.3372 18.1304 13.6203 17.6447 14.7333 16.8766C15.8463 16.1085 16.7556 15.081 17.3827 13.883C18.0099 12.6849 18.3361 11.3523 18.3332 9.99997C18.3342 7.94956 17.574 5.97177 16.1998 4.44997V4.44997ZM9.99982 3.3333C11.1258 3.33034 12.2336 3.61733 13.2165 4.16663H6.78315C7.76606 3.61733 8.87384 3.33034 9.99982 3.3333V3.3333ZM4.79982 5.8333H15.1998C15.9676 6.79332 16.455 7.94693 16.6082 9.16663H3.39148C3.54463 7.94693 4.03203 6.79332 4.79982 5.8333ZM9.99982 16.6666C8.37707 16.6652 6.81058 16.0719 5.59401 14.998C4.37744 13.9241 3.59433 12.4433 3.39148 10.8333H16.6082C16.4053 12.4433 15.6222 13.9241 14.4056 14.998C13.1891 16.0719 11.6226 16.6652 9.99982 16.6666ZM6.66648 6.66663C6.50167 6.66663 6.34055 6.71551 6.20351 6.80708C6.06647 6.89864 5.95966 7.02879 5.89658 7.18106C5.83351 7.33334 5.81701 7.50089 5.84916 7.66254C5.88132 7.82419 5.96068 7.97268 6.07723 8.08922C6.19377 8.20577 6.34226 8.28513 6.50391 8.31729C6.66556 8.34944 6.83312 8.33294 6.98539 8.26987C7.13766 8.20679 7.26781 8.09998 7.35938 7.96294C7.45094 7.8259 7.49982 7.66479 7.49982 7.49997C7.49982 7.27895 7.41202 7.06699 7.25574 6.91071C7.09946 6.75443 6.8875 6.66663 6.66648 6.66663V6.66663ZM11.6665 6.66663C11.5017 6.66663 11.3405 6.71551 11.2035 6.80708C11.0665 6.89864 10.9597 7.02879 10.8966 7.18106C10.8335 7.33334 10.817 7.50089 10.8492 7.66254C10.8813 7.82419 10.9607 7.97268 11.0772 8.08922C11.1938 8.20577 11.3423 8.28513 11.5039 8.31729C11.6656 8.34944 11.8331 8.33294 11.9854 8.26987C12.1377 8.20679 12.2678 8.09998 12.3594 7.96294C12.4509 7.8259 12.4998 7.66479 12.4998 7.49997C12.4998 7.27895 12.412 7.06699 12.2557 6.91071C12.0995 6.75443 11.8875 6.66663 11.6665 6.66663ZM9.16648 14.9416C9.29103 15.0122 9.43166 15.0495 9.57482 15.05C9.72248 15.0497 9.86743 15.0102 9.99481 14.9356C10.1222 14.8609 10.2275 14.7537 10.2998 14.625C10.5168 14.232 10.8356 13.9047 11.2227 13.6774C11.6098 13.4501 12.0509 13.3313 12.4998 13.3333C12.7208 13.3333 12.9328 13.2455 13.0891 13.0892C13.2454 12.9329 13.3332 12.721 13.3332 12.5C13.3332 12.279 13.2454 12.067 13.0891 11.9107C12.9328 11.7544 12.7208 11.6666 12.4998 11.6666C11.757 11.6666 11.0277 11.8651 10.3874 12.2417C9.74714 12.6182 9.21915 13.1591 8.85815 13.8083C8.74951 13.9996 8.72095 14.2262 8.77872 14.4385C8.83648 14.6508 8.97587 14.8317 9.16648 14.9416V14.9416Z" fill="#3B3737"/>
</svg>
