<svg width="32" height="32" viewBox="0 0 32 32" fill="none" xmlns="http://www.w3.org/2000/svg">
<path d="M22.6665 26.6666H29.3332V23.9999C29.3332 21.7908 27.5423 19.9999 25.3332 19.9999C24.059 19.9999 22.924 20.5957 22.1915 21.5238M22.6665 26.6666H9.33317M22.6665 26.6666V23.9999C22.6665 23.1249 22.4979 22.2893 22.1915 21.5238M9.33317 26.6666H2.6665V23.9999C2.6665 21.7908 4.45736 19.9999 6.6665 19.9999C7.94065 19.9999 9.07565 20.5957 9.80817 21.5238M9.33317 26.6666V23.9999C9.33317 23.1249 9.50174 22.2893 9.80817 21.5238M9.80817 21.5238C10.7912 19.068 13.1929 17.3333 15.9998 17.3333C18.8068 17.3333 21.2085 19.068 22.1915 21.5238M19.9998 9.33325C19.9998 11.5424 18.209 13.3333 15.9998 13.3333C13.7907 13.3333 11.9998 11.5424 11.9998 9.33325C11.9998 7.12411 13.7907 5.33325 15.9998 5.33325C18.209 5.33325 19.9998 7.12411 19.9998 9.33325ZM27.9998 13.3333C27.9998 14.806 26.8059 15.9999 25.3332 15.9999C23.8604 15.9999 22.6665 14.806 22.6665 13.3333C22.6665 11.8605 23.8604 10.6666 25.3332 10.6666C26.8059 10.6666 27.9998 11.8605 27.9998 13.3333ZM9.33317 13.3333C9.33317 14.806 8.13926 15.9999 6.6665 15.9999C5.19374 15.9999 3.99984 14.806 3.99984 13.3333C3.99984 11.8605 5.19374 10.6666 6.6665 10.6666C8.13926 10.6666 9.33317 11.8605 9.33317 13.3333Z" stroke="white" stroke-width="2" stroke-linecap="round" stroke-linejoin="round"/>
</svg>
