<svg width="24" height="24" viewBox="0 0 24 24" fill="none" xmlns="http://www.w3.org/2000/svg">
<g filter="url(#filter0_b_3335_17376)">
<path d="M15.5417 9.63889C15.5417 11.5949 13.956 13.1806 12 13.1806C10.044 13.1806 8.45833 11.5949 8.45833 9.63889C8.45833 7.68288 10.044 6.09722 12 6.09722C13.956 6.09722 15.5417 7.68288 15.5417 9.63889Z" fill="#3B3737"/>
<path d="M22.625 12C22.625 17.868 17.868 22.625 12 22.625C6.13197 22.625 1.375 17.868 1.375 12C1.375 6.13197 6.13197 1.375 12 1.375C17.868 1.375 22.625 6.13197 22.625 12Z" fill="#3B3737"/>
<path d="M3.879 18.8516C6.27745 17.4959 9.04837 16.7222 12 16.7222C14.9516 16.7222 17.7226 17.4959 20.121 18.8516M15.5417 9.63889C15.5417 11.5949 13.956 13.1806 12 13.1806C10.044 13.1806 8.45833 11.5949 8.45833 9.63889C8.45833 7.68288 10.044 6.09722 12 6.09722C13.956 6.09722 15.5417 7.68288 15.5417 9.63889ZM22.625 12C22.625 17.868 17.868 22.625 12 22.625C6.13197 22.625 1.375 17.868 1.375 12C1.375 6.13197 6.13197 1.375 12 1.375C17.868 1.375 22.625 6.13197 22.625 12Z" stroke="white" stroke-width="1.5" stroke-linecap="round" stroke-linejoin="round"/>
</g>
<defs>
<filter id="filter0_b_3335_17376" x="-3.375" y="-3.375" width="30.75" height="30.75" filterUnits="userSpaceOnUse" color-interpolation-filters="sRGB">
<feFlood flood-opacity="0" result="BackgroundImageFix"/>
<feGaussianBlur in="BackgroundImageFix" stdDeviation="2"/>
<feComposite in2="SourceAlpha" operator="in" result="effect1_backgroundBlur_3335_17376"/>
<feBlend mode="normal" in="SourceGraphic" in2="effect1_backgroundBlur_3335_17376" result="shape"/>
</filter>
</defs>
</svg>
