<svg width="17" height="18" viewBox="0 0 17 18" fill="none" xmlns="http://www.w3.org/2000/svg">
<path fill-rule="evenodd" clip-rule="evenodd" d="M0.553711 3.16663C0.553711 2.50358 0.799283 1.8677 1.23641 1.39886C1.67353 0.930018 2.26639 0.666626 2.88458 0.666626H13.7619C14.3801 0.666626 14.973 0.930018 15.4101 1.39886C15.8472 1.8677 16.0928 2.50358 16.0928 3.16663V14.8333C16.0928 15.4963 15.8472 16.1322 15.4101 16.6011C14.973 17.0699 14.3801 17.3333 13.7619 17.3333H2.88458C2.26639 17.3333 1.67353 17.0699 1.23641 16.6011C0.799283 16.1322 0.553711 15.4963 0.553711 14.8333V3.16663ZM2.88458 2.33329C2.67851 2.33329 2.48089 2.42109 2.33519 2.57737C2.18948 2.73365 2.10762 2.94561 2.10762 3.16663V7.33329H14.5389V3.16663C14.5389 2.94561 14.457 2.73365 14.3113 2.57737C14.1656 2.42109 13.968 2.33329 13.7619 2.33329H2.88458ZM2.10762 8.99996V14.8333C2.10762 15.0543 2.18948 15.2663 2.33519 15.4225C2.48089 15.5788 2.67851 15.6666 2.88458 15.6666H13.7619C13.968 15.6666 14.1656 15.5788 14.3113 15.4225C14.457 15.2663 14.5389 15.0543 14.5389 14.8333V8.99996H2.10762ZM9.87717 9.83329C10.0832 9.83334 10.2808 9.92117 10.4265 10.0775L13.5343 13.4108C13.6758 13.568 13.7541 13.7785 13.7524 13.997C13.7506 14.2155 13.6689 14.4245 13.5248 14.579C13.3808 14.7335 13.1859 14.8211 12.9822 14.823C12.7785 14.8249 12.5822 14.7409 12.4357 14.5891L9.87717 11.845L8.09561 13.7558L7.31866 14.5891C7.17212 14.7409 6.97586 14.8249 6.77214 14.823C6.56843 14.8211 6.37356 14.7335 6.22951 14.579C6.08545 14.4245 6.00374 14.2155 6.00197 13.997C6.0002 13.7785 6.07851 13.568 6.22004 13.4108L6.44769 13.1666L5.99239 12.6783L4.21084 14.5891C4.0643 14.7409 3.86804 14.8249 3.66433 14.823C3.46061 14.8211 3.26574 14.7335 3.12169 14.579C2.97763 14.4245 2.89592 14.2155 2.89415 13.997C2.89238 13.7785 2.97069 13.568 3.11222 13.4108L5.44309 10.9108C5.58879 10.7546 5.78637 10.6668 5.99239 10.6668C6.19841 10.6668 6.396 10.7546 6.5417 10.9108L7.5463 11.9883L9.32786 10.0775C9.47353 9.92117 9.67112 9.83334 9.87717 9.83329ZM7.5463 4.83329C7.5463 4.61228 7.62816 4.40032 7.77387 4.24404C7.91958 4.08776 8.1172 3.99996 8.32326 3.99996H12.208C12.4141 3.99996 12.6117 4.08776 12.7574 4.24404C12.9031 4.40032 12.985 4.61228 12.985 4.83329C12.985 5.05431 12.9031 5.26627 12.7574 5.42255C12.6117 5.57883 12.4141 5.66663 12.208 5.66663H8.32326C8.1172 5.66663 7.91958 5.57883 7.77387 5.42255C7.62816 5.26627 7.5463 5.05431 7.5463 4.83329ZM4.43848 6.29163C4.79909 6.29163 5.14493 6.13798 5.39992 5.86449C5.6549 5.591 5.79816 5.22007 5.79816 4.83329C5.79816 4.44652 5.6549 4.07559 5.39992 3.8021C5.14493 3.5286 4.79909 3.37496 4.43848 3.37496C4.07788 3.37496 3.73204 3.5286 3.47705 3.8021C3.22206 4.07559 3.07881 4.44652 3.07881 4.83329C3.07881 5.22007 3.22206 5.591 3.47705 5.86449C3.73204 6.13798 4.07788 6.29163 4.43848 6.29163Z" fill="#3B3737"/>
</svg>
