<svg width="30" height="30" viewBox="0 0 30 30" fill="none" xmlns="http://www.w3.org/2000/svg">
<path d="M11.25 22.2656C11.25 22.9128 10.7253 23.4375 10.0781 23.4375C9.43089 23.4375 8.90623 22.9128 8.90623 22.2656C8.90623 21.6184 9.43089 21.0938 10.0781 21.0938C10.7253 21.0938 11.25 21.6184 11.25 22.2656Z" fill="black"/>
<path d="M19.9219 23.4375C20.5691 23.4375 21.0937 22.9128 21.0937 22.2656C21.0937 21.6184 20.5691 21.0938 19.9219 21.0938C19.2746 21.0938 18.75 21.6184 18.75 22.2656C18.75 22.9128 19.2746 23.4375 19.9219 23.4375Z" fill="black"/>
<path fill-rule="evenodd" clip-rule="evenodd" d="M6.63898 8.4359C6.28591 9.51563 6.09373 10.6799 6.09373 11.8899C6.09373 14.1761 6.16397 16.0259 6.29851 17.5147C4.50491 18.4548 3.28123 20.3345 3.28123 22.5C3.28123 25.6066 5.79963 28.125 8.90623 28.125H21.0937C24.2003 28.125 26.7187 25.6066 26.7187 22.5C26.7187 20.3345 25.495 18.4548 23.7014 17.5147C23.836 16.0259 23.9062 14.1761 23.9062 11.8899C23.9062 10.6799 23.7141 9.51563 23.361 8.4359C23.8714 8.4234 24.4108 8.33638 24.9437 8.1328C26.0193 7.72193 26.8377 6.94317 27.3652 6.23706C27.6302 5.88244 27.8309 5.53414 27.9581 5.24064C28.0213 5.09493 28.0711 4.95175 28.0991 4.82084C28.1212 4.71766 28.1535 4.52278 28.0758 4.33789C28.0336 4.23759 27.9684 4.16659 27.9287 4.12748C27.883 4.08234 27.8321 4.04219 27.7827 4.00725C27.6833 3.93703 27.5603 3.8673 27.4234 3.8013C27.1478 3.66851 26.7819 3.53461 26.3604 3.43602C25.5215 3.23984 24.412 3.17236 23.3293 3.58595C22.541 3.88706 21.9018 4.40434 21.4138 4.94031C19.8021 3.05625 17.5359 1.875 15 1.875C12.4641 1.875 10.1979 3.05625 8.58612 4.94031C8.09819 4.40434 7.45893 3.88706 6.67068 3.58595C5.58797 3.17236 4.47847 3.23984 3.63957 3.43602C3.21802 3.53461 2.85213 3.66851 2.57657 3.8013C2.43962 3.8673 2.31662 3.93703 2.21727 4.00725C2.16783 4.04219 2.11698 4.08234 2.07122 4.12748C2.03157 4.16659 1.96639 4.23759 1.9242 4.33789C1.84641 4.52278 1.87877 4.71766 1.90085 4.82084C1.92887 4.95175 1.97869 5.09493 2.04183 5.24064C2.16902 5.53414 2.36975 5.88244 2.63471 6.23706C3.16229 6.94317 3.98062 7.72193 5.05622 8.1328C5.58914 8.33638 6.12854 8.4234 6.63898 8.4359ZM4.21873 22.5C4.21873 20.6396 5.30248 19.0324 6.87309 18.2752C6.91932 18.2677 6.96471 18.2532 7.00767 18.2317C7.24678 18.112 8.12592 17.8125 9.37498 17.8125H20.625C20.919 17.8125 21.4001 17.8349 21.8706 17.9016C22.0974 17.9338 22.3024 17.9738 22.4758 18.0196C22.6103 18.061 22.7422 18.1084 22.8713 18.1613C22.8975 18.1749 22.9213 18.1887 22.9423 18.2027C22.9989 18.2403 23.0619 18.2646 23.1269 18.2752C24.6975 19.0324 25.7812 20.6396 25.7812 22.5C25.7812 25.0888 23.6826 27.1875 21.0937 27.1875H8.90623C6.31739 27.1875 4.21873 25.0888 4.21873 22.5ZM6.99659 7.49437C6.47945 7.52004 5.92481 7.46103 5.39076 7.25703C4.52939 6.92799 3.84306 6.28802 3.38574 5.67593C3.15825 5.37146 2.99647 5.08579 2.90203 4.86787C2.87713 4.81039 2.85819 4.76059 2.84422 4.71881C2.88244 4.69683 2.92882 4.67223 2.98356 4.64586C3.19364 4.54462 3.49422 4.43281 3.85305 4.34889C4.57492 4.18008 5.48188 4.13541 6.33613 4.46173C7.01073 4.71943 7.5717 5.19268 8.00191 5.69484C7.6128 6.25088 7.27515 6.85388 6.99659 7.49437ZM23.0034 7.49437C22.7248 6.85388 22.3872 6.25089 21.998 5.69484C22.4283 5.19268 22.9892 4.71943 23.6638 4.46173C24.5181 4.13541 25.425 4.18008 26.1469 4.34889C26.5057 4.43281 26.8063 4.54462 27.0164 4.64586C27.0711 4.67223 27.1175 4.69683 27.1557 4.71881C27.1418 4.76059 27.1228 4.81039 27.0979 4.86787C27.0035 5.08579 26.8417 5.37146 26.6142 5.67593C26.1569 6.28802 25.4706 6.92799 24.6092 7.25703C24.0751 7.46103 23.5205 7.52004 23.0034 7.49437ZM2.81247 4.59575C2.81171 4.58969 2.81188 4.58707 2.81188 4.58707C2.81188 4.58707 2.81244 4.59024 2.81247 4.59575ZM27.1875 4.59575C27.1882 4.58969 27.1881 4.58707 27.1881 4.58707C27.1881 4.58707 27.1875 4.59024 27.1875 4.59575ZM11.7187 11.25C12.2365 11.25 12.6562 10.8303 12.6562 10.3125C12.6562 9.79473 12.2365 9.375 11.7187 9.375C11.201 9.375 10.7812 9.79473 10.7812 10.3125C10.7812 10.8303 11.201 11.25 11.7187 11.25ZM19.2187 11.25C19.7365 11.25 20.1562 10.8303 20.1562 10.3125C20.1562 9.79473 19.7365 9.375 19.2187 9.375C18.701 9.375 18.2812 9.79473 18.2812 10.3125C18.2812 10.8303 18.701 11.25 19.2187 11.25Z" fill="black"/>
</svg>
