<svg width="80" height="80" viewBox="0 0 60 60" fill="none" xmlns="http://www.w3.org/2000/svg">
<path fill-rule="evenodd" clip-rule="evenodd" d="M30 0C25.8579 0 22.5 3.35786 22.5 7.5V20.5C22.5 21.6046 21.6046 22.5 20.5 22.5H7.5C3.35786 22.5 0 25.8579 0 30C0 34.1421 3.35786 37.5 7.5 37.5H20.5C21.6046 37.5 22.5 38.3954 22.5 39.5V52.5C22.5 56.6421 25.8579 60 30 60C34.1421 60 37.5 56.6421 37.5 52.5V39.5C37.5 38.3954 38.3954 37.5 39.5 37.5H52.5C56.6421 37.5 60 34.1421 60 30C60 25.8579 56.6421 22.5 52.5 22.5H39.5C38.3954 22.5 37.5 21.6046 37.5 20.5V7.5C37.5 3.35786 34.1421 0 30 0Z" fill="#EFEFEF"/>
</svg>
