<svg width="30" height="30" viewBox="0 0 30 30" fill="none" xmlns="http://www.w3.org/2000/svg">
<path fill-rule="evenodd" clip-rule="evenodd" d="M13.7082 13.5938C13.1274 13.5938 12.6565 14.0646 12.6565 14.6455C12.6565 14.9319 12.7733 15.2059 12.9799 15.4042L13.1918 15.6076C13.5696 15.9703 14.0293 16.1974 14.5096 16.2889C14.416 17.0258 14.0296 17.6121 13.4866 17.9506C12.8639 18.3388 11.9792 18.4348 10.98 17.9676C10.7455 17.858 10.4665 17.9592 10.3569 18.1937C10.2472 18.4282 10.3484 18.7072 10.5829 18.8169C11.3248 19.1637 12.0574 19.2769 12.7236 19.1915L13.0011 20.8562C13.1141 21.5343 13.7007 22.0312 14.3882 22.0312H15.6123C16.2997 22.0312 16.8864 21.5343 16.9994 20.8562L17.2769 19.1915C17.9431 19.2769 18.6757 19.1637 19.4175 18.8169C19.652 18.7072 19.7533 18.4282 19.6436 18.1937C19.534 17.9592 19.255 17.858 19.0204 17.9676C18.0212 18.4348 17.1366 18.3388 16.5138 17.9506C15.9708 17.6121 15.5845 17.0258 15.4909 16.2889C15.9712 16.1974 16.4309 15.9703 16.8087 15.6076L17.0206 15.4042C17.2272 15.2059 17.344 14.9319 17.344 14.6455C17.344 14.0646 16.8731 13.5938 16.2923 13.5938H13.7082ZM16.3692 18.9347C16.248 18.8794 16.1307 18.8165 16.0179 18.7462C15.5984 18.4847 15.2525 18.1278 15.0002 17.7029C14.748 18.1278 14.4021 18.4847 13.9826 18.7462C13.8698 18.8165 13.7525 18.8794 13.6312 18.9347L13.9258 20.7021C13.9635 20.9281 14.159 21.0938 14.3882 21.0938H15.6123C15.8414 21.0938 16.037 20.9281 16.0747 20.7021L16.3692 18.9347Z" fill="black"/>
<path d="M12.4221 12.6562C12.8104 12.6562 13.1252 12.3414 13.1252 11.9531C13.1252 11.5648 12.8104 11.25 12.4221 11.25C12.0338 11.25 11.719 11.5648 11.719 11.9531C11.719 12.3414 12.0338 12.6562 12.4221 12.6562Z" fill="black"/>
<path d="M18.2815 11.9531C18.2815 12.3414 17.9667 12.6562 17.5784 12.6562C17.19 12.6562 16.8752 12.3414 16.8752 11.9531C16.8752 11.5648 17.19 11.25 17.5784 11.25C17.9667 11.25 18.2815 11.5648 18.2815 11.9531Z" fill="black"/>
<path fill-rule="evenodd" clip-rule="evenodd" d="M7.50957 11.3184C7.56736 10.0825 7.89123 8.91701 8.42296 7.88804C7.99607 6.82388 7.84762 5.52812 8.07508 4.3258C8.14122 3.97623 8.43991 3.72714 8.78805 3.80045C9.45512 3.94092 10.3871 4.36746 10.9807 4.98857C12.1395 4.2052 13.5167 3.75 15.0002 3.75C16.4838 3.75 17.861 4.2052 19.0198 4.98857C19.6134 4.36746 20.5453 3.94092 21.2124 3.80045C21.5606 3.72714 21.8593 3.97623 21.9254 4.3258C22.1528 5.52812 22.0044 6.82388 21.5775 7.88804C22.1134 8.92506 22.4382 10.1007 22.4922 11.3474C22.6707 11.3777 22.8492 11.4151 23.0272 11.4598C26.7737 12.4013 28.9233 16.2316 27.8483 19.9942C26.7764 23.7462 22.8951 26.0412 19.1608 25.1027C18.9825 25.0579 18.8077 25.0065 18.6366 24.9488C17.6746 26.0342 16.4105 26.7188 15.0002 26.7188C13.6089 26.7188 12.3595 26.0523 11.4025 24.992C8.30384 25.9854 4.72801 24.6198 2.93206 21.6223C0.89592 18.2239 1.88284 13.9422 5.21393 12.089C5.94143 11.6843 6.71872 11.4311 7.50957 11.3184ZM15.0002 4.6875C11.4039 4.6875 8.43774 7.80654 8.43774 11.7188L8.43776 11.7378L8.43883 12.1719L8.0061 12.2062C7.19891 12.2703 6.40412 12.4997 5.66972 12.9082C2.84579 14.4793 1.94544 18.1515 3.73626 21.1405C5.37443 23.8746 8.66722 25.0293 11.385 24.0057L11.7008 23.8868L11.9138 24.1484C12.7599 25.1879 13.8454 25.7812 15.0002 25.7812C16.1714 25.7812 17.2716 25.1708 18.1226 24.1038L18.3386 23.8331L18.6608 23.9599C18.8946 24.052 19.1376 24.1302 19.3893 24.1935C22.6177 25.0048 26.0096 23.0172 26.9469 19.7366C27.8811 16.4666 26.015 13.1773 22.7987 12.369C22.5265 12.3006 22.2534 12.2521 21.9808 12.2225L21.5607 12.177L21.5627 11.7543L21.5627 11.7188C21.5627 7.80654 18.5966 4.6875 15.0002 4.6875Z" fill="black"/>
</svg>
