<svg width="30" height="30" viewBox="0 0 30 30" fill="none" xmlns="http://www.w3.org/2000/svg">
<path d="M12.1875 11.7188C12.1875 12.2365 11.7678 12.6562 11.25 12.6562C10.7322 12.6562 10.3125 12.2365 10.3125 11.7188C10.3125 11.201 10.7322 10.7812 11.25 10.7812C11.7678 10.7812 12.1875 11.201 12.1875 11.7188Z" fill="black"/>
<path d="M19.6875 11.7188C19.6875 12.2365 19.2678 12.6562 18.75 12.6562C18.2322 12.6562 17.8125 12.2365 17.8125 11.7188C17.8125 11.201 18.2322 10.7812 18.75 10.7812C19.2678 10.7812 19.6875 11.201 19.6875 11.7188Z" fill="black"/>
<path d="M13.5938 17.8125C13.5938 17.5536 13.3839 17.3438 13.125 17.3438C12.8661 17.3438 12.6562 17.5536 12.6562 17.8125V19.6875C12.6562 19.9464 12.8661 20.1562 13.125 20.1562C13.3839 20.1562 13.5938 19.9464 13.5938 19.6875V17.8125Z" fill="black"/>
<path d="M17.3438 17.8125C17.3438 17.5536 17.1339 17.3438 16.875 17.3438C16.6161 17.3438 16.4062 17.5536 16.4062 17.8125V19.6875C16.4062 19.9464 16.6161 20.1562 16.875 20.1562C17.1339 20.1562 17.3438 19.9464 17.3438 19.6875V17.8125Z" fill="black"/>
<path fill-rule="evenodd" clip-rule="evenodd" d="M10.7413 15.3919C11.8478 14.562 13.3551 14.0625 15 14.0625C16.6449 14.0625 18.1522 14.562 19.2587 15.3919C20.3654 16.2219 21.0938 17.4044 21.0938 18.75C21.0938 20.0956 20.3654 21.2781 19.2587 22.1081C18.1522 22.938 16.6449 23.4375 15 23.4375C13.3551 23.4375 11.8478 22.938 10.7413 22.1081C9.63456 21.2781 8.90625 20.0956 8.90625 18.75C8.90625 17.4044 9.63456 16.2219 10.7413 15.3919ZM11.3038 16.1419C10.3746 16.8387 9.84375 17.7656 9.84375 18.75C9.84375 19.7344 10.3746 20.6613 11.3038 21.3581C12.2331 22.0551 13.5383 22.5 15 22.5C16.4617 22.5 17.7669 22.0551 18.6962 21.3581C19.6254 20.6613 20.1562 19.7344 20.1562 18.75C20.1562 17.7656 19.6254 16.8387 18.6962 16.1419C17.7669 15.4449 16.4617 15 15 15C13.5383 15 12.2331 15.4449 11.3038 16.1419Z" fill="black"/>
<path fill-rule="evenodd" clip-rule="evenodd" d="M21.52 4.82662C19.5971 3.84242 17.3704 3.28125 15 3.28125C12.6296 3.28125 10.4029 3.84243 8.48004 4.82663C8.00678 4.33205 7.40304 3.86571 6.6707 3.58595C5.58799 3.17236 4.47849 3.23984 3.63959 3.43602C3.21804 3.53461 2.85216 3.66851 2.57659 3.8013C2.43964 3.8673 2.31664 3.93703 2.21729 4.00725C2.16786 4.04219 2.117 4.08234 2.07124 4.12748C2.03159 4.16659 1.96641 4.23759 1.92422 4.33789C1.84643 4.52278 1.87879 4.71766 1.90088 4.82084C1.9289 4.95175 1.97871 5.09493 2.04185 5.24064C2.16904 5.53414 2.36978 5.88244 2.63473 6.23707C3.07651 6.82834 3.72217 7.47056 4.55204 7.90505C2.87639 9.86955 1.875 12.3278 1.875 15C1.875 21.5225 7.80469 26.7188 15 26.7188C22.1953 26.7188 28.125 21.5225 28.125 15C28.125 12.3277 27.1236 9.86953 25.448 7.90505C26.2778 7.47056 26.9235 6.82834 27.3653 6.23707C27.6302 5.88244 27.8309 5.53414 27.9581 5.24064C28.0213 5.09493 28.0711 4.95175 28.0991 4.82084C28.1212 4.71766 28.1536 4.52278 28.0758 4.33789C28.0336 4.23759 27.9684 4.16659 27.9288 4.12748C27.883 4.08234 27.8321 4.04219 27.7827 4.00725C27.6834 3.93703 27.5604 3.8673 27.4234 3.8013C27.1478 3.66851 26.7819 3.53461 26.3604 3.43602C25.5215 3.23984 24.412 3.17236 23.3293 3.58595C22.597 3.86571 21.9932 4.33205 21.52 4.82662ZM15 4.21875C12.8535 4.21875 10.8395 4.70953 9.09114 5.56889C9.34214 5.92307 9.53101 6.26169 9.65482 6.53241C9.71763 6.66973 9.76739 6.79764 9.79943 6.90663C9.81516 6.96016 9.82986 7.01998 9.83767 7.08014L9.83782 7.0813C9.84259 7.11797 9.85929 7.24641 9.80272 7.38087C9.76053 7.48116 9.69535 7.55217 9.6557 7.59128C9.60994 7.63642 9.55908 7.67657 9.50964 7.71151C9.4103 7.78173 9.2873 7.85146 9.15034 7.91746C8.87478 8.05025 8.50889 8.18416 8.08734 8.28274C7.3574 8.45344 6.4226 8.52669 5.47883 8.27039C3.80559 10.1202 2.8125 12.4603 2.8125 15C2.8125 20.9039 8.2156 25.7812 15 25.7812C21.7844 25.7812 27.1875 20.9039 27.1875 15C27.1875 12.4604 26.1945 10.1202 24.5212 8.27039C23.5774 8.52669 22.6426 8.45344 21.9126 8.28274C21.4911 8.18416 21.1252 8.05025 20.8496 7.91746C20.7127 7.85146 20.5897 7.78173 20.4903 7.71151C20.4409 7.67657 20.3901 7.63642 20.3443 7.59128C20.3046 7.55217 20.2395 7.48116 20.1973 7.38087C20.1407 7.24641 20.1574 7.11797 20.1622 7.0813L20.1623 7.08014C20.1701 7.01998 20.1848 6.96016 20.2006 6.90663C20.2326 6.79764 20.2824 6.66973 20.3452 6.53241C20.469 6.26169 20.6579 5.92307 20.9089 5.56888C19.1605 4.70953 17.1465 4.21875 15 4.21875ZM2.84425 4.71881C2.85821 4.76059 2.87715 4.81039 2.90205 4.86787C2.99649 5.08579 3.15827 5.37146 3.38576 5.67593C3.84309 6.28802 4.52942 6.92799 5.39078 7.25703C6.24504 7.58335 7.15199 7.53868 7.87386 7.36987C8.2327 7.28595 8.53328 7.17414 8.74336 7.07291C8.78132 7.05461 8.81527 7.03717 8.84526 7.02087C8.83286 6.99089 8.81857 6.95799 8.80225 6.92232C8.70128 6.70154 8.53718 6.40586 8.31189 6.09078C7.85692 5.45452 7.1869 4.78671 6.33615 4.46173C5.4819 4.13541 4.57494 4.18008 3.85307 4.34889C3.49424 4.43281 3.19366 4.54462 2.98358 4.64586C2.92884 4.67223 2.88246 4.69683 2.84425 4.71881ZM2.81249 4.59575C2.81173 4.58969 2.8119 4.58707 2.8119 4.58707C2.8119 4.58707 2.81246 4.59024 2.81249 4.59575ZM27.0979 4.86787C27.1228 4.81039 27.1418 4.76059 27.1557 4.71881C27.1175 4.69683 27.0712 4.67223 27.0164 4.64586C26.8063 4.54462 26.5058 4.43281 26.1469 4.34889C25.425 4.18008 24.5181 4.13541 23.6638 4.46173C22.8131 4.78671 22.1431 5.45452 21.6881 6.09078C21.4628 6.40586 21.2987 6.70154 21.1977 6.92232C21.1814 6.95799 21.1671 6.99089 21.1547 7.02087C21.1847 7.03717 21.2187 7.05461 21.2566 7.07291C21.4667 7.17414 21.7673 7.28595 22.1261 7.36987C22.848 7.53868 23.755 7.58335 24.6092 7.25703C25.4706 6.92799 26.1569 6.28802 26.6142 5.67593C26.8417 5.37146 27.0035 5.08579 27.0979 4.86787ZM27.1875 4.59575C27.1883 4.58969 27.1881 4.58707 27.1881 4.58707C27.1881 4.58707 27.1875 4.59024 27.1875 4.59575Z" fill="black"/>
</svg>
