<svg width="30" height="30" viewBox="0 0 30 30" fill="none" xmlns="http://www.w3.org/2000/svg">
<path d="M13.708 15.4687C13.1272 15.4687 12.6563 15.9396 12.6563 16.5204C12.6563 16.8068 12.7731 17.0808 12.9797 17.2791L13.1916 17.4826C13.5713 17.8471 14.0337 18.0747 14.5166 18.1652C14.4368 19.1074 14.0366 19.8335 13.4459 20.2386C12.793 20.6863 11.8004 20.8142 10.5 20.2467C10.2628 20.1431 9.98647 20.2516 9.88293 20.4888C9.77938 20.7261 9.88779 21.0024 10.1251 21.1059C11.6372 21.7658 12.9883 21.6891 13.9761 21.0118C14.4102 20.714 14.753 20.3146 15 19.8451C15.2471 20.3146 15.5899 20.714 16.024 21.0118C17.0118 21.6891 18.3629 21.7658 19.875 21.1059C20.1123 21.0024 20.2207 20.7261 20.1172 20.4888C20.0136 20.2516 19.7373 20.1431 19.5001 20.2467C18.1997 20.8142 17.2071 20.6863 16.5542 20.2386C15.9635 19.8335 15.5633 19.1074 15.4835 18.1652C15.9664 18.0747 16.4288 17.8471 16.8085 17.4826L17.0204 17.2791C17.227 17.0808 17.3438 16.8068 17.3438 16.5204C17.3438 15.9396 16.8729 15.4687 16.2921 15.4687H13.708Z" fill="black"/>
<path d="M12.1875 14.0625C12.1875 14.5802 11.7678 15 11.25 15C10.7323 15 10.3125 14.5802 10.3125 14.0625C10.3125 13.5447 10.7323 13.125 11.25 13.125C11.7678 13.125 12.1875 13.5447 12.1875 14.0625Z" fill="black"/>
<path d="M18.7501 15C19.2678 15 19.6876 14.5802 19.6876 14.0625C19.6876 13.5447 19.2678 13.125 18.7501 13.125C18.2323 13.125 17.8126 13.5447 17.8126 14.0625C17.8126 14.5802 18.2323 15 18.7501 15Z" fill="black"/>
<path fill-rule="evenodd" clip-rule="evenodd" d="M11.5605 6.12674C11.2988 5.65657 10.8638 5.23908 10.3824 4.8817C9.80263 4.45124 9.10266 4.06936 8.40729 3.7564C7.71058 3.44283 7.00443 3.19214 6.40488 3.02847C6.10527 2.94669 5.8264 2.88502 5.58471 2.84871C5.3532 2.81393 5.11951 2.79651 4.92699 2.82611C4.75295 2.85287 4.60858 2.97491 4.55323 3.14208C4.10231 4.50395 4.15876 6.41644 4.42015 8.03401C4.55227 8.85164 4.74071 9.6188 4.95773 10.2326C5.06611 10.5391 5.18473 10.8162 5.31186 11.0457C5.37743 11.164 5.45137 11.281 5.53502 11.386C5.30534 12.0367 5.17469 12.7241 5.1581 13.4382C3.97934 14.8211 3.2813 16.4832 3.2813 18.2812C3.2813 18.5548 3.29743 18.8252 3.32893 19.0919L2.28566 19.2223C2.02877 19.2544 1.84656 19.4887 1.87867 19.7456C1.91078 20.0025 2.14506 20.1847 2.40194 20.1526L3.5022 20.015C3.66393 20.6404 3.91116 21.2404 4.23288 21.8082L2.61858 22.542C2.3829 22.6491 2.27869 22.927 2.38582 23.1627C2.49294 23.3983 2.77084 23.5026 3.00652 23.3954L4.74745 22.6041C5.29418 23.3527 5.97635 24.0318 6.76385 24.6224C8.88835 26.2158 11.8018 27.1875 15 27.1875C18.1983 27.1875 21.1118 26.2158 23.2363 24.6224C24.0238 24.0318 24.7059 23.3527 25.2527 22.6041L26.9936 23.3954C27.2293 23.5026 27.5072 23.3983 27.6143 23.1627C27.7214 22.927 27.6172 22.6491 27.3815 22.542L25.7672 21.8082C26.0889 21.2404 26.3362 20.6404 26.4979 20.015L27.5982 20.1526C27.855 20.1847 28.0893 20.0025 28.1214 19.7456C28.1535 19.4887 27.9713 19.2544 27.7144 19.2223L26.6712 19.0919C26.7027 18.8252 26.7188 18.5548 26.7188 18.2812C26.7188 16.4832 26.0208 14.8211 24.842 13.4382C24.8254 12.7241 24.6948 12.0367 24.4651 11.386C24.5487 11.281 24.6227 11.164 24.6882 11.0457C24.8154 10.8162 24.934 10.5391 25.0424 10.2326C25.2594 9.6188 25.4478 8.85164 25.58 8.03402C25.8413 6.41644 25.8978 4.50396 25.4469 3.14208C25.3915 2.97492 25.2472 2.85287 25.0731 2.82611C24.8804 2.79649 24.6503 2.81391 24.4234 2.84902C24.1871 2.8856 23.9165 2.94765 23.6273 3.02974C23.0485 3.19403 22.3708 3.44546 21.7028 3.7597C21.036 4.07341 20.3654 4.45608 19.808 4.88732C19.3243 5.26153 18.8912 5.69876 18.6398 6.18923C17.5075 5.8243 16.2774 5.62495 15 5.62495C13.7976 5.62495 12.637 5.8016 11.5605 6.12674ZM22.7257 10.103C21.734 8.73763 20.1766 7.64668 18.2813 7.05333V9.37495C18.2813 9.63383 18.0714 9.8437 17.8126 9.8437C17.5537 9.8437 17.3438 9.63383 17.3438 9.37495V6.80706C16.7439 6.67857 16.1168 6.59817 15.4688 6.57192V10.3125C15.4688 10.5713 15.2589 10.7812 15 10.7812C14.7412 10.7812 14.5313 10.5713 14.5313 10.3125V6.57192C13.8833 6.59817 13.2562 6.67857 12.6563 6.80706V9.37495C12.6563 9.63383 12.4464 9.8437 12.1875 9.8437C11.9287 9.8437 11.7188 9.63383 11.7188 9.37495V7.05333C10.1627 7.54051 8.83425 8.36315 7.85976 9.39771C7.44226 9.87898 7.0614 10.4152 6.72702 10.9966C6.31753 11.8058 6.0938 12.6839 6.0938 13.5937L6.09384 13.6138L6.09447 13.7927L5.97585 13.9265C4.85534 15.1904 4.2188 16.6873 4.2188 18.2812C4.2188 18.5148 4.23251 18.7464 4.25944 18.9756L6.03566 18.7536C6.29254 18.7215 6.52682 18.9037 6.55893 19.1606C6.59104 19.4174 6.40882 19.6517 6.15194 19.6838L4.44197 19.8976C4.58934 20.4238 4.80753 20.9328 5.09015 21.4185L7.77483 20.1982C8.01051 20.0911 8.28841 20.1953 8.39553 20.431C8.50266 20.6667 8.39845 20.9445 8.16277 21.0517L5.62092 22.2071C6.08762 22.8136 6.66107 23.3735 7.32635 23.8724C9.27355 25.3328 11.9851 26.25 15 26.25C18.015 26.25 20.7265 25.3328 22.6738 23.8724C23.339 23.3735 23.9125 22.8136 24.3792 22.2071L21.8373 21.0517C21.6017 20.9445 21.4974 20.6667 21.6046 20.431C21.7117 20.1953 21.9896 20.0911 22.2253 20.1982L24.91 21.4185C25.1926 20.9328 25.4108 20.4238 25.5581 19.8976L23.8482 19.6838C23.5913 19.6517 23.4091 19.4174 23.4412 19.1606C23.4733 18.9037 23.7076 18.7215 23.9644 18.7536L25.7407 18.9756C25.7676 18.7464 25.7813 18.5148 25.7813 18.2812C25.7813 16.6873 25.1448 15.1904 24.0243 13.9265L23.9056 13.7927L23.9063 13.6139L23.9063 13.5937C23.9063 12.6587 23.67 11.7573 23.2387 10.9297C23.0752 10.642 22.9042 10.3661 22.7257 10.103Z" fill="black"/>
</svg>
