<svg width="30" height="30" viewBox="0 0 30 30" fill="none" xmlns="http://www.w3.org/2000/svg">
<path d="M8.58656 7.50224C8.78649 7.4568 9.02129 7.44758 9.29782 7.49367C9.55318 7.53623 9.79469 7.36372 9.83725 7.10836C9.87981 6.853 9.70731 6.61149 9.45194 6.56893C8.62288 6.43075 7.96361 6.63758 7.47775 7.01132C7.00575 7.3744 6.7255 7.87213 6.58644 8.28932C6.50457 8.53492 6.6373 8.80038 6.8829 8.88225C6.93762 8.90049 6.99333 8.90808 7.04777 8.90614C7.0368 8.98274 7.03113 9.06105 7.03113 9.14069C7.03113 10.0468 7.76566 10.7813 8.67176 10.7813C9.57785 10.7813 10.3124 10.0468 10.3124 9.14069C10.3124 8.23459 9.57785 7.50006 8.67176 7.50006C8.64318 7.50006 8.61478 7.50079 8.58656 7.50224Z" fill="black"/>
<path d="M22.9686 9.14069C22.9686 10.0468 22.2341 10.7813 21.328 10.7813C20.4219 10.7813 19.6874 10.0468 19.6874 9.14069C19.6874 8.3875 20.1949 7.75285 20.8867 7.56011C20.5395 7.45012 20.1633 7.4272 19.7644 7.49368C19.5091 7.53624 19.2676 7.36374 19.225 7.10837C19.1824 6.85301 19.355 6.6115 19.6103 6.56894C20.9196 6.35072 22.074 6.85407 22.8749 7.92193C23.0121 8.10495 22.9953 8.35569 22.8466 8.51873C22.9253 8.71054 22.9686 8.92055 22.9686 9.14069Z" fill="black"/>
<path d="M21.4442 18.4389C21.6161 18.6325 21.5984 18.9288 21.4048 19.1007C19.9428 20.3982 17.3718 21.0623 14.9143 21.0927C13.6729 21.1081 12.4293 20.9628 11.3292 20.6386C10.2334 20.3157 9.2489 19.806 8.56309 19.0695C8.38666 18.88 8.39722 18.5834 8.58668 18.407C8.77614 18.2306 9.07275 18.2412 9.24918 18.4306C9.78211 19.0029 10.5952 19.445 11.5942 19.7393C12.5888 20.0324 13.737 20.1697 14.9027 20.1553C17.2592 20.1262 19.5632 19.4816 20.7825 18.3995C20.9761 18.2276 21.2724 18.2453 21.4442 18.4389Z" fill="black"/>
<path d="M17.6705 23.3048C17.8561 23.1242 17.8601 22.8275 17.6796 22.6419C17.499 22.4564 17.2023 22.4523 17.0167 22.6329C16.3442 23.2873 15.5699 23.4814 14.8376 23.4297C14.0912 23.3769 13.3947 23.0669 12.9377 22.7235C12.7308 22.568 12.4369 22.6097 12.2814 22.8166C12.1259 23.0236 12.1676 23.3174 12.3745 23.473C12.9592 23.9124 13.8252 24.2979 14.7715 24.3648C15.732 24.4327 16.7806 24.1707 17.6705 23.3048Z" fill="black"/>
<path fill-rule="evenodd" clip-rule="evenodd" d="M17.589 6.09643C18.9481 3.58409 21.848 2.50046 24.1012 3.88882C26.3283 5.26116 26.9003 8.43392 25.546 10.9374C25.4129 11.1836 25.2656 11.4156 25.1059 11.6327C27.5471 13.3599 28.6499 16.6484 27.8844 19.8846C27.0009 23.62 23.9051 25.086 20.6347 26.0692C18.9429 26.5778 16.7737 26.7491 14.7235 26.7145C12.6709 26.6799 10.6906 26.4379 9.36504 26.0937C6.78239 25.4232 4.26819 24.4672 2.83969 21.6399C1.08111 18.1592 1.72872 13.6916 4.79746 11.5658C4.65635 11.3681 4.52534 11.1585 4.40577 10.9374C3.05147 8.43392 3.62351 5.26116 5.85065 3.88882C8.10379 2.50046 11.0037 3.58409 12.3628 6.09643C12.5779 6.49396 12.7439 6.90621 12.8628 7.32396C13.5439 7.17383 14.251 7.09481 14.9759 7.09481C15.7008 7.09481 16.4079 7.17383 17.0891 7.32396C17.2079 6.90621 17.374 6.49396 17.589 6.09643ZM23.6094 4.68696C21.9233 3.64806 19.5815 4.38356 18.4136 6.54249C18.1625 7.00658 17.9908 7.49356 17.8939 7.98271L17.7961 8.47644L17.3106 8.34386C16.5668 8.14077 15.7842 8.03231 14.9759 8.03231C14.1676 8.03231 13.385 8.14077 12.6412 8.34386L12.1557 8.47644L12.0579 7.98271C11.9611 7.49356 11.7893 7.00658 11.5382 6.54249C10.3703 4.38356 8.02846 3.64806 6.34246 4.68696C4.63045 5.74189 4.05769 8.32362 5.23035 10.4914C5.40773 10.8193 5.61357 11.1152 5.84082 11.3773L6.21354 11.8073L5.7202 12.0908C5.68577 12.1106 5.65147 12.1308 5.61728 12.1514C2.79019 13.8576 2.01475 17.9282 3.67645 21.2171C4.91093 23.6604 7.06618 24.5283 9.60063 25.1863C10.8336 25.5065 12.736 25.7434 14.7393 25.7772C16.745 25.811 18.805 25.6403 20.3648 25.1714C23.5975 24.1995 26.2154 22.8682 26.9721 19.6688C27.7047 16.5713 26.522 13.5308 24.1757 12.1464L23.6838 11.8562L24.0643 11.4303C24.3101 11.1553 24.532 10.8416 24.7215 10.4914C25.8941 8.32362 25.3214 5.74189 23.6094 4.68696Z" fill="black"/>
</svg>
