<svg width="30" height="30" viewBox="0 0 30 30" fill="none" xmlns="http://www.w3.org/2000/svg">
<path fill-rule="evenodd" clip-rule="evenodd" d="M17.8125 19.6875C17.8125 20.4629 17.436 21.1503 16.8558 21.577C16.8691 21.7625 16.8764 21.9513 16.8748 22.0578C16.8596 23.0316 16.0438 23.9062 15 23.9062C13.9562 23.9062 13.1404 23.0316 13.1252 22.0578C13.1236 21.9513 13.1309 21.7625 13.1442 21.577C12.564 21.1503 12.1875 20.4629 12.1875 19.6875V19.2106C12.1875 18.9842 12.2203 18.759 12.2849 18.542L13.0446 15.9895C13.302 15.1244 14.0974 14.5312 15 14.5312C15.9026 14.5312 16.698 15.1244 16.9554 15.9895L17.7151 18.542C17.7797 18.759 17.8125 18.9842 17.8125 19.2106V19.6875ZM15.4688 22.0312C15.6291 22.0312 15.7858 22.0151 15.9371 21.9844C15.9375 22.008 15.9376 22.0279 15.9374 22.0432C15.9298 22.5276 15.5093 22.9688 15 22.9688C14.4907 22.9688 14.0702 22.5276 14.0626 22.0432C14.0624 22.0279 14.0625 22.008 14.0629 21.9844C14.2142 22.0151 14.3709 22.0312 14.5312 22.0312H15.4688Z" fill="black"/>
<path d="M18.2697 15.2655C18.4672 15.305 18.7902 15.3934 19.1538 15.5355C18.9152 15.6479 18.75 15.8906 18.75 16.1719C18.75 16.5602 19.0648 16.875 19.4531 16.875C19.8414 16.875 20.1562 16.5602 20.1562 16.1719C20.1562 16.1247 20.1516 16.0786 20.1427 16.034C20.3409 16.1628 20.5247 16.306 20.6819 16.4631C20.8649 16.6462 21.1617 16.6462 21.3448 16.4631C21.5278 16.2801 21.5278 15.9833 21.3448 15.8002C20.8906 15.3461 20.3085 15.0138 19.7856 14.783C19.2603 14.5512 18.7636 14.4082 18.4536 14.3462C18.1997 14.2954 17.9528 14.4601 17.902 14.7139C17.8512 14.9678 18.0159 15.2147 18.2697 15.2655Z" fill="black"/>
<path d="M10.8462 15.5355C11.2098 15.3934 11.5327 15.305 11.7303 15.2655C11.9841 15.2147 12.1487 14.9678 12.098 14.7139C12.0472 14.4601 11.8003 14.2954 11.5464 14.3462C11.2364 14.4082 10.7397 14.5512 10.2144 14.783C9.69145 15.0138 9.10936 15.3461 8.65522 15.8002C8.47216 15.9833 8.47216 16.2801 8.65522 16.4631C8.83828 16.6462 9.13507 16.6462 9.31813 16.4631C9.47526 16.306 9.65913 16.1628 9.85726 16.034C9.8484 16.0786 9.84375 16.1247 9.84375 16.1719C9.84375 16.5602 10.1586 16.875 10.5469 16.875C10.9352 16.875 11.25 16.5602 11.25 16.1719C11.25 15.8906 11.0848 15.6479 10.8462 15.5355Z" fill="black"/>
<path fill-rule="evenodd" clip-rule="evenodd" d="M12.1527 9.12468C11.8287 6.39085 9.69433 4.21875 7.03518 4.21875C4.14396 4.21875 1.875 6.78405 1.875 9.85167C1.875 12.6106 3.70679 14.9587 6.17905 15.4076C6.11121 15.7719 6.06803 16.1451 6.05133 16.5256L5.96904 18.4006C5.77007 22.9344 9.39199 26.7188 13.9301 26.7188H16.0699C20.608 26.7188 24.2299 22.9344 24.031 18.4006L23.9487 16.5256C23.932 16.1451 23.8888 15.7719 23.821 15.4076C26.2932 14.9587 28.125 12.6106 28.125 9.85167C28.125 6.78405 25.856 4.21875 22.9648 4.21875C20.3057 4.21875 18.1713 6.39085 17.8473 9.12468C17.2502 8.98182 16.6274 8.90625 15.9876 8.90625H14.0124C13.3726 8.90625 12.7498 8.98182 12.1527 9.12468ZM7.03518 5.15625C4.74439 5.15625 2.8125 7.2151 2.8125 9.85167C2.8125 12.2412 4.4029 14.1606 6.40557 14.4951C6.57836 13.9419 6.80961 13.415 7.09196 12.9216C6.23191 12.505 5.625 11.4938 5.625 10.3125C5.625 9.96423 5.67775 9.63074 5.77419 9.32292C5.87915 8.98789 6.03586 8.68326 6.23264 8.42306C6.44194 8.14629 6.69656 7.91979 6.98245 7.76042C7.28224 7.59329 7.61642 7.5 7.96875 7.5C8.32108 7.5 8.65526 7.59329 8.95505 7.76042C9.24094 7.91979 9.49556 8.14629 9.70486 8.42306C9.90164 8.68326 10.0583 8.98789 10.1633 9.32292C10.2145 9.48647 10.2535 9.65727 10.2787 9.83369C10.5873 9.66971 10.908 9.52546 11.2388 9.40258C11.0332 6.98329 9.19446 5.15625 7.03518 5.15625ZM22.908 12.9216C23.1904 13.415 23.4216 13.9418 23.5944 14.4951C25.5971 14.1606 27.1875 12.2412 27.1875 9.85167C27.1875 7.2151 25.2556 5.15625 22.9648 5.15625C20.8055 5.15625 18.9668 6.98329 18.7612 9.40258C19.092 9.52546 19.4127 9.66971 19.7213 9.83368C19.7465 9.65727 19.7854 9.48647 19.8367 9.32292C19.9417 8.98789 20.0984 8.68326 20.2951 8.42306C20.5044 8.14629 20.7591 7.91979 21.0449 7.76042C21.3447 7.59329 21.6789 7.5 22.0312 7.5C22.3836 7.5 22.7178 7.59329 23.0176 7.76042C23.3034 7.91979 23.5581 8.14629 23.7674 8.42306C23.9641 8.68326 24.1208 8.98789 24.2258 9.32292C24.3222 9.63074 24.375 9.96423 24.375 10.3125C24.375 11.4938 23.7681 12.505 22.908 12.9216ZM6.98793 16.5667C7.15294 12.807 10.2491 9.84375 14.0124 9.84375H15.9876C19.7509 9.84375 22.8471 12.807 23.0121 16.5667L23.0944 18.4417C23.2699 22.4421 20.0741 25.7812 16.0699 25.7812H13.9301C9.92589 25.7812 6.73007 22.4421 6.90564 18.4417L6.98793 16.5667Z" fill="black"/>
</svg>
