<svg width="30" height="30" viewBox="0 0 30 30" fill="none" xmlns="http://www.w3.org/2000/svg">
<path fill-rule="evenodd" clip-rule="evenodd" d="M17.8652 15.0516C16.0346 13.221 15.5894 10.6982 16.8708 9.4168C18.1522 8.13539 20.675 8.58058 22.5056 10.4112C24.6676 12.5732 24.7814 14.7645 23.5 16.0459C22.2185 17.3273 20.0272 17.2136 17.8652 15.0516ZM20.625 12.1875C20.625 12.7053 20.2053 13.125 19.6875 13.125C19.1697 13.125 18.75 12.7053 18.75 12.1875C18.75 11.6697 19.1697 11.25 19.6875 11.25C20.2053 11.25 20.625 11.6697 20.625 12.1875Z" fill="black"/>
<path fill-rule="evenodd" clip-rule="evenodd" d="M13.6562 9.4168C14.9376 10.6982 14.4924 13.221 12.6618 15.0516C10.4998 17.2136 8.30849 17.3273 7.02708 16.0459C5.74568 14.7645 5.85941 12.5732 8.02145 10.4112C9.85204 8.58058 12.3748 8.13539 13.6562 9.4168ZM12.1875 12.1875C12.1875 12.7053 11.7678 13.125 11.25 13.125C10.7322 13.125 10.3125 12.7053 10.3125 12.1875C10.3125 11.6697 10.7322 11.25 11.25 11.25C11.7678 11.25 12.1875 11.6697 12.1875 12.1875Z" fill="black"/>
<path d="M14.1767 16.4062C13.5959 16.4062 13.125 16.8771 13.125 17.458C13.125 17.7444 13.2418 18.0184 13.4484 18.2167L13.6603 18.4201C14.0473 18.7917 14.5202 19.0209 15.0132 19.1078C15.0046 19.1434 15 19.1805 15 19.2188C15 19.7642 14.752 20.1849 14.3374 20.417C13.913 20.6546 13.2407 20.7328 12.3448 20.4137C12.1009 20.3268 11.8328 20.4541 11.7459 20.6979C11.6591 20.9418 11.7863 21.2099 12.0302 21.2968C13.1031 21.679 14.0713 21.6404 14.7954 21.235C15.0652 21.084 15.2911 20.8873 15.4687 20.6564C15.6464 20.8873 15.8723 21.084 16.1421 21.235C16.8662 21.6404 17.8344 21.679 18.9073 21.2968C19.1512 21.2099 19.2784 20.9418 19.1916 20.6979C19.1047 20.4541 18.8366 20.3268 18.5927 20.4137C17.6968 20.7328 17.0245 20.6546 16.6001 20.417C16.1855 20.1849 15.9375 19.7642 15.9375 19.2188C15.9375 19.1805 15.9329 19.1434 15.9243 19.1078C16.4173 19.0209 16.8902 18.7917 17.2772 18.4201L17.4891 18.2167C17.6957 18.0184 17.8125 17.7444 17.8125 17.458C17.8125 16.8771 17.3416 16.4062 16.7608 16.4062H14.1767Z" fill="black"/>
<path fill-rule="evenodd" clip-rule="evenodd" d="M3.90069 10.4214C2.67765 9.57618 1.875 8.16331 1.875 6.5625C1.875 3.97367 3.97367 1.875 6.5625 1.875C8.54817 1.875 10.2445 3.10935 10.9278 4.85167C12.207 4.44117 13.577 4.21875 15 4.21875C16.423 4.21875 17.793 4.44117 19.0721 4.85167C19.7555 3.10935 21.4518 1.875 23.4375 1.875C26.0263 1.875 28.125 3.97366 28.125 6.5625C28.125 8.16331 27.3223 9.57618 26.0993 10.4214C27.0912 12.1251 27.6562 14.0839 27.6562 16.1719C27.6562 22.7993 21.9632 28.125 15 28.125C8.03678 28.125 2.34375 22.7993 2.34375 16.1719C2.34375 14.0839 2.90883 12.1251 3.90069 10.4214ZM2.8125 6.5625C2.8125 4.49143 4.49143 2.8125 6.5625 2.8125C8.141 2.8125 9.49272 3.7881 10.0456 5.17014C9.66838 5.32189 9.30042 5.49045 8.94284 5.67484C8.51809 5.07731 7.82019 4.6875 7.03125 4.6875C5.73683 4.6875 4.6875 5.73683 4.6875 7.03125C4.6875 7.61152 4.89838 8.14254 5.24768 8.55185C4.94616 8.89546 4.66458 9.25533 4.40466 9.62991C3.44084 8.9506 2.8125 7.8297 2.8125 6.5625ZM25.5953 9.62991C26.5592 8.9506 27.1875 7.8297 27.1875 6.5625C27.1875 4.49143 25.5086 2.8125 23.4375 2.8125C21.859 2.8125 20.5073 3.7881 19.9543 5.17014C20.3316 5.32189 20.6996 5.49045 21.0572 5.67484C21.4819 5.07731 22.1798 4.6875 22.9688 4.6875C24.2632 4.6875 25.3125 5.73683 25.3125 7.03125C25.3125 7.61152 25.1016 8.14254 24.7523 8.55185C25.0538 8.89545 25.3354 9.25533 25.5953 9.62991ZM3.28125 16.1719C3.28125 10.114 8.50128 5.15625 15 5.15625C21.4987 5.15625 26.7188 10.114 26.7188 16.1719C26.7188 22.2298 21.4987 27.1875 15 27.1875C8.50128 27.1875 3.28125 22.2298 3.28125 16.1719Z" fill="black"/>
</svg>
