<svg width="32" height="32" viewBox="0 0 32 32" fill="none" xmlns="http://www.w3.org/2000/svg">
<path d="M16.9536 5C13.9373 5 11.4921 7.44519 11.4921 10.4615C11.4921 13.4778 13.9373 15.923 16.9536 15.923C19.9699 15.923 22.415 13.4778 22.415 10.4615C22.415 7.44519 19.9699 5 16.9536 5Z" fill="#3B3737"/>
<path d="M11.128 18.8357C8.11169 18.8357 5.6665 21.2809 5.6665 24.2972V26.0278C5.6665 27.1248 6.46153 28.0602 7.54419 28.2369C13.7759 29.2544 20.1313 29.2544 26.3629 28.2369C27.4456 28.0602 28.2406 27.1248 28.2406 26.0278V24.2972C28.2406 21.2809 25.7954 18.8357 22.7791 18.8357H22.2827C22.014 18.8357 21.747 18.8782 21.4916 18.9616L20.231 19.3732C18.1014 20.0686 15.8057 20.0686 13.6761 19.3732L12.4155 18.9616C12.1601 18.8782 11.8931 18.8357 11.6244 18.8357H11.128Z" fill="#3B3737"/>
</svg>
