<svg width="32" height="32" viewBox="0 0 32 32" fill="none" xmlns="http://www.w3.org/2000/svg">
<path d="M17.3333 19.9999C16.5969 19.9999 16 20.5969 16 21.3333C16 22.0696 16.5969 22.6666 17.3333 22.6666C18.0697 22.6666 18.6666 22.0696 18.6666 21.3333C18.6666 20.5969 18.0697 19.9999 17.3333 19.9999Z" fill="#3B3737"/>
<path d="M13.3333 22.6666C12.5969 22.6666 12 23.2636 12 23.9999C12 24.7363 12.5969 25.3333 13.3333 25.3333C14.0697 25.3333 14.6666 24.7363 14.6666 23.9999C14.6666 23.2636 14.0697 22.6666 13.3333 22.6666Z" fill="#3B3737"/>
<path fill-rule="evenodd" clip-rule="evenodd" d="M19.3262 4.33327L19.3202 4.33325H12.6797L12.6736 4.33327H11.3333C10.781 4.33327 10.3333 4.78099 10.3333 5.33327C10.3333 5.88555 10.781 6.33327 11.3333 6.33327H11.6797V13.0814C5.74406 15.8873 4.88657 24.0692 10.2215 28.026L10.6149 28.3177C13.8131 30.6897 18.1868 30.6897 21.385 28.3177L21.7783 28.026C27.1133 24.0692 26.2558 15.8873 20.3202 13.0814V6.33327H20.6666C21.2189 6.33327 21.6666 5.88555 21.6666 5.33327C21.6666 4.78099 21.2189 4.33327 20.6666 4.33327H19.3262ZM11.8063 26.7113C14.2969 28.5585 17.7029 28.5585 20.1936 26.7113L20.5869 26.4196C23.2742 24.4265 23.9253 21.0441 22.7794 18.3333H9.2205C8.07457 21.0441 8.72565 24.4265 11.413 26.4196L11.8063 26.7113ZM10.5291 16.3333H21.4708C20.8678 15.6996 20.1212 15.1676 19.2367 14.7862C18.6805 14.5464 18.3202 13.9987 18.3202 13.393V6.33327H13.6797V13.393C13.6797 13.9988 13.3194 14.5464 12.7632 14.7862C11.8787 15.1676 11.1321 15.6996 10.5291 16.3333Z" fill="#3B3737"/>
</svg>
