<svg width="32" height="32" viewBox="0 0 32 32" fill="none" xmlns="http://www.w3.org/2000/svg">
<path d="M16.4002 16.2934C17.1116 15.6776 17.6822 14.9159 18.0733 14.0601C18.4644 13.2043 18.6668 12.2744 18.6668 11.3334C18.6668 9.56531 17.9645 7.86961 16.7142 6.61937C15.464 5.36913 13.7683 4.66675 12.0002 4.66675C10.2321 4.66675 8.53636 5.36913 7.28612 6.61937C6.03588 7.86961 5.3335 9.56531 5.3335 11.3334C5.33349 12.2744 5.5359 13.2043 5.927 14.0601C6.3181 14.9159 6.88873 15.6776 7.60016 16.2934C5.73368 17.1386 4.15012 18.5035 3.0388 20.2248C1.92749 21.9462 1.33546 23.9512 1.3335 26.0001C1.3335 26.3537 1.47397 26.6928 1.72402 26.9429C1.97407 27.1929 2.31321 27.3334 2.66683 27.3334C3.02045 27.3334 3.35959 27.1929 3.60964 26.9429C3.85969 26.6928 4.00016 26.3537 4.00016 26.0001C4.00016 23.8784 4.84302 21.8435 6.34331 20.3432C7.8436 18.8429 9.87843 18.0001 12.0002 18.0001C14.1219 18.0001 16.1567 18.8429 17.657 20.3432C19.1573 21.8435 20.0002 23.8784 20.0002 26.0001C20.0002 26.3537 20.1406 26.6928 20.3907 26.9429C20.6407 27.1929 20.9799 27.3334 21.3335 27.3334C21.6871 27.3334 22.0263 27.1929 22.2763 26.9429C22.5264 26.6928 22.6668 26.3537 22.6668 26.0001C22.6649 23.9512 22.0728 21.9462 20.9615 20.2248C19.8502 18.5035 18.2666 17.1386 16.4002 16.2934V16.2934ZM12.0002 15.3334C11.209 15.3334 10.4357 15.0988 9.77788 14.6593C9.12009 14.2198 8.6074 13.5951 8.30465 12.8642C8.00189 12.1332 7.92268 11.329 8.07702 10.5531C8.23136 9.77713 8.61233 9.0644 9.17174 8.50499C9.73115 7.94558 10.4439 7.56462 11.2198 7.41027C11.9957 7.25593 12.8 7.33515 13.5309 7.6379C14.2618 7.94065 14.8865 8.45334 15.326 9.11113C15.7656 9.76893 16.0002 10.5423 16.0002 11.3334C16.0002 12.3943 15.5787 13.4117 14.8286 14.1618C14.0784 14.912 13.061 15.3334 12.0002 15.3334ZM24.9868 15.7601C25.8401 14.7992 26.3975 13.6122 26.5919 12.3419C26.7863 11.0716 26.6094 9.77218 26.0825 8.60008C25.5556 7.42798 24.7012 6.43314 23.6221 5.73531C22.543 5.03748 21.2852 4.6664 20.0002 4.66675C19.6465 4.66675 19.3074 4.80722 19.0574 5.05727C18.8073 5.30732 18.6668 5.64646 18.6668 6.00008C18.6668 6.3537 18.8073 6.69284 19.0574 6.94289C19.3074 7.19294 19.6465 7.33342 20.0002 7.33342C21.061 7.33342 22.0784 7.75484 22.8286 8.50499C23.5787 9.25513 24.0002 10.2725 24.0002 11.3334C23.9983 12.0337 23.8126 12.7213 23.4616 13.3273C23.1106 13.9333 22.6067 14.4366 22.0002 14.7868C21.8025 14.9008 21.6374 15.0636 21.5206 15.2597C21.4039 15.4558 21.3395 15.6786 21.3335 15.9068C21.3279 16.1331 21.3801 16.3571 21.485 16.5578C21.59 16.7584 21.7444 16.929 21.9335 17.0534L22.4535 17.4001L22.6268 17.4934C24.234 18.2557 25.5899 19.4614 26.5348 20.9685C27.4797 22.4756 27.9742 24.2213 27.9602 26.0001C27.9602 26.3537 28.1006 26.6928 28.3507 26.9429C28.6007 27.1929 28.9399 27.3334 29.2935 27.3334C29.6471 27.3334 29.9863 27.1929 30.2363 26.9429C30.4864 26.6928 30.6268 26.3537 30.6268 26.0001C30.6377 23.954 30.1253 21.9391 29.1381 20.1468C28.151 18.3546 26.722 16.8445 24.9868 15.7601V15.7601Z" fill="#3B3737"/>
</svg>
