<svg width="80" height="80" viewBox="0 0 80 80" fill="none" xmlns="http://www.w3.org/2000/svg">
<rect width="80" height="80" fill="white"/>
<path d="M41.0002 40.7334C42.7788 39.1939 44.2053 37.2897 45.1831 35.1502C46.1608 33.0106 46.6669 30.6858 46.6668 28.3334C46.6668 23.9131 44.9109 19.6739 41.7853 16.5483C38.6597 13.4227 34.4204 11.6667 30.0002 11.6667C25.5799 11.6667 21.3407 13.4227 18.2151 16.5483C15.0894 19.6739 13.3335 23.9131 13.3335 28.3334C13.3335 30.6858 13.8395 33.0106 14.8172 35.1502C15.795 37.2897 17.2216 39.1939 19.0002 40.7334C14.334 42.8464 10.375 46.2585 7.59676 50.5619C4.81848 54.8653 3.3384 59.8778 3.3335 65.0001C3.3335 65.8841 3.68469 66.732 4.30981 67.3571C4.93493 67.9822 5.78277 68.3334 6.66683 68.3334C7.55088 68.3334 8.39873 67.9822 9.02385 67.3571C9.64897 66.732 10.0002 65.8841 10.0002 65.0001C10.0002 59.6958 12.1073 54.6087 15.858 50.858C19.6088 47.1072 24.6958 45.0001 30.0002 45.0001C35.3045 45.0001 40.3916 47.1072 44.1423 50.858C47.893 54.6087 50.0002 59.6958 50.0002 65.0001C50.0002 65.8841 50.3514 66.732 50.9765 67.3571C51.6016 67.9822 52.4494 68.3334 53.3335 68.3334C54.2176 68.3334 55.0654 67.9822 55.6905 67.3571C56.3156 66.732 56.6668 65.8841 56.6668 65.0001C56.6619 59.8778 55.1819 54.8653 52.4036 50.5619C49.6253 46.2585 45.6664 42.8464 41.0002 40.7334V40.7334ZM30.0002 38.3334C28.0224 38.3334 26.089 37.7469 24.4445 36.6481C22.8 35.5493 21.5182 33.9875 20.7614 32.1603C20.0045 30.333 19.8065 28.3223 20.1923 26.3825C20.5782 24.4427 21.5306 22.6609 22.9291 21.2623C24.3276 19.8638 26.1095 18.9114 28.0493 18.5256C29.9891 18.1397 31.9997 18.3377 33.827 19.0946C35.6543 19.8515 37.216 21.1332 38.3149 22.7777C39.4137 24.4222 40.0002 26.3556 40.0002 28.3334C40.0002 30.9856 38.9466 33.5291 37.0712 35.4045C35.1959 37.2799 32.6523 38.3334 30.0002 38.3334ZM62.4668 39.4001C64.6001 36.9979 65.9935 34.0303 66.4795 30.8545C66.9655 27.6788 66.5233 24.4303 65.2061 21.5001C63.8889 18.5698 61.7528 16.0827 59.0551 14.3382C56.3573 12.5936 53.2129 11.6659 50.0002 11.6667C49.1161 11.6667 48.2683 12.0179 47.6431 12.6431C47.018 13.2682 46.6668 14.116 46.6668 15.0001C46.6668 15.8841 47.018 16.732 47.6431 17.3571C48.2683 17.9822 49.1161 18.3334 50.0002 18.3334C52.6523 18.3334 55.1959 19.387 57.0712 21.2623C58.9466 23.1377 60.0002 25.6813 60.0002 28.3334C59.9955 30.0842 59.5312 31.8031 58.6537 33.3182C57.7763 34.8332 56.5164 36.0914 55.0002 36.9668C54.506 37.2518 54.0932 37.659 53.8014 38.1492C53.5096 38.6395 53.3485 39.1964 53.3335 39.7668C53.3196 40.3326 53.4499 40.8927 53.7124 41.3943C53.9748 41.8958 54.3606 42.3223 54.8335 42.6334L56.1335 43.5001L56.5668 43.7334C60.5848 45.6391 63.9745 48.6534 66.3368 52.4211C68.699 56.1889 69.9353 60.5532 69.9002 65.0001C69.9002 65.8841 70.2514 66.732 70.8765 67.3571C71.5016 67.9822 72.3494 68.3334 73.2335 68.3334C74.1176 68.3334 74.9654 67.9822 75.5905 67.3571C76.2156 66.732 76.5668 65.8841 76.5668 65.0001C76.5941 59.8849 75.3129 54.8476 72.8451 50.367C70.3772 45.8863 66.8047 42.1111 62.4668 39.4001V39.4001Z" fill="#3B3737"/>
</svg>
