<svg width="30" height="30" viewBox="0 0 30 30" fill="none" xmlns="http://www.w3.org/2000/svg">
<path d="M23.75 3.80005H6.25C4.87125 3.80005 3.75 4.9213 3.75 6.30005V21.3C3.75 22.6788 4.87125 23.8 6.25 23.8H10.3183C10.5835 23.8 10.8379 23.9054 11.0254 24.0929L14.2929 27.3604C14.6834 27.751 15.3166 27.751 15.7071 27.3604L18.9746 24.0929C19.1621 23.9054 19.4165 23.8 19.6817 23.8H23.75C25.1288 23.8 26.25 22.6788 26.25 21.3V6.30005C26.25 4.9213 25.1288 3.80005 23.75 3.80005ZM23.75 20.3C23.75 20.8523 23.3023 21.3 22.75 21.3H18.6467C18.3815 21.3 18.1271 21.4054 17.9396 21.5929L15.7071 23.8254C15.3166 24.216 14.6834 24.216 14.2929 23.8254L12.0604 21.5929C11.8729 21.4054 11.6185 21.3 11.3533 21.3H7.25C6.69771 21.3 6.25 20.8523 6.25 20.3V7.30005C6.25 6.74776 6.69772 6.30005 7.25 6.30005H22.75C23.3023 6.30005 23.75 6.74776 23.75 7.30005V20.3Z" fill="#3B3737"/>
<path d="M18.75 15.75C20.1307 15.75 20.625 15.2557 20.625 13.875C20.625 12.4943 20.1307 12 18.75 12C17.3693 12 16.875 12.4943 16.875 13.875C16.875 15.2557 17.3693 15.75 18.75 15.75Z" fill="#3B3737"/>
<path d="M11.25 15.75C12.6307 15.75 13.125 15.2557 13.125 13.875C13.125 12.4943 12.6307 12 11.25 12C9.86929 12 9.375 12.4943 9.375 13.875C9.375 15.2557 9.86929 15.75 11.25 15.75Z" fill="#3B3737"/>
</svg>
