<svg width="30" height="30" viewBox="0 0 30 30" fill="none" xmlns="http://www.w3.org/2000/svg">
<path fill-rule="evenodd" clip-rule="evenodd" d="M4.0625 15C4.0625 8.95938 8.95938 4.0625 15 4.0625C21.0406 4.0625 25.9375 8.95938 25.9375 15C25.9375 21.0406 21.0406 25.9375 15 25.9375C8.95938 25.9375 4.0625 21.0406 4.0625 15ZM15 5.9375C9.99492 5.9375 5.9375 9.99492 5.9375 15C5.9375 20.0051 9.99492 24.0625 15 24.0625C20.0051 24.0625 24.0625 20.0051 24.0625 15C24.0625 9.99492 20.0051 5.9375 15 5.9375Z" fill="#638271"/>
<path d="M10.5 14.625L13.875 18L19.875 12" stroke="#638271" stroke-width="1.8" stroke-linecap="round" stroke-linejoin="round"/>
</svg>
