<svg width="17" height="16" viewBox="0 0 17 16" fill="none" xmlns="http://www.w3.org/2000/svg">
<g clip-path="url(#clip0_1792_4911)">
<path d="M3.1497 12.514C4.72985 11.6209 6.5554 11.1111 8.5 11.1111C10.4446 11.1111 12.2702 11.6209 13.8503 12.514M10.8333 6.44444C10.8333 7.73311 9.78866 8.77778 8.5 8.77778C7.21134 8.77778 6.16667 7.73311 6.16667 6.44444C6.16667 5.15578 7.21134 4.11111 8.5 4.11111C9.78866 4.11111 10.8333 5.15578 10.8333 6.44444ZM15.5 8C15.5 11.866 12.366 15 8.5 15C4.63401 15 1.5 11.866 1.5 8C1.5 4.13401 4.63401 1 8.5 1C12.366 1 15.5 4.13401 15.5 8Z" stroke="#3B3737" stroke-width="1.5" stroke-linecap="round" stroke-linejoin="round"/>
</g>
<defs>
<clipPath id="clip0_1792_4911">
<rect width="16" height="16" fill="white" transform="translate(0.5)"/>
</clipPath>
</defs>
</svg>
