<svg width="34" height="36" viewBox="0 0 34 36" fill="none" xmlns="http://www.w3.org/2000/svg">
<g filter="url(#filter0_dd_2465_8678)">
<path d="M17 2.5C10.125 2.5 4.5 8.125 4.5 15C4.5 21.875 10.125 27.5 17 27.5C23.875 27.5 29.5 21.875 29.5 15C29.5 8.125 23.875 2.5 17 2.5ZM17 5.27778C19.1528 5.27778 21.1667 6.04167 22.8333 7.22222L9.22222 20.8333C8.04167 19.1667 7.27778 17.1528 7.27778 15C7.27778 9.65278 11.6528 5.27778 17 5.27778ZM17 24.7222C14.8472 24.7222 12.8333 23.9583 11.1667 22.7778L24.7778 9.16667C25.9583 10.8333 26.7222 12.8472 26.7222 15C26.7222 20.3472 22.3472 24.7222 17 24.7222Z" fill="#B3111F"/>
</g>
<defs>
<filter id="filter0_dd_2465_8678" x="-2" y="0" width="38" height="38" filterUnits="userSpaceOnUse" color-interpolation-filters="sRGB">
<feFlood flood-opacity="0" result="BackgroundImageFix"/>
<feColorMatrix in="SourceAlpha" type="matrix" values="0 0 0 0 0 0 0 0 0 0 0 0 0 0 0 0 0 0 127 0" result="hardAlpha"/>
<feOffset dy="4"/>
<feGaussianBlur stdDeviation="2"/>
<feComposite in2="hardAlpha" operator="out"/>
<feColorMatrix type="matrix" values="0 0 0 0 0 0 0 0 0 0 0 0 0 0 0 0 0 0 0.25 0"/>
<feBlend mode="normal" in2="BackgroundImageFix" result="effect1_dropShadow_2465_8678"/>
<feColorMatrix in="SourceAlpha" type="matrix" values="0 0 0 0 0 0 0 0 0 0 0 0 0 0 0 0 0 0 127 0" result="hardAlpha"/>
<feOffset dy="4"/>
<feGaussianBlur stdDeviation="2"/>
<feComposite in2="hardAlpha" operator="out"/>
<feColorMatrix type="matrix" values="0 0 0 0 0 0 0 0 0 0 0 0 0 0 0 0 0 0 0.25 0"/>
<feBlend mode="normal" in2="effect1_dropShadow_2465_8678" result="effect2_dropShadow_2465_8678"/>
<feBlend mode="normal" in="SourceGraphic" in2="effect2_dropShadow_2465_8678" result="shape"/>
</filter>
</defs>
</svg>
