<svg width="30" height="30" viewBox="0 0 30 30" fill="none" xmlns="http://www.w3.org/2000/svg">
<path d="M15 13.2857C15.5681 13.2857 16.0286 13.7462 16.0286 14.3143V21.1714C16.0286 21.7395 15.5681 22.2 15 22.2C14.4319 22.2 13.9714 21.7395 13.9714 21.1714V14.3143C13.9714 13.7462 14.4319 13.2857 15 13.2857Z" fill="#E81224"/>
<path d="M15 10.8857C15.7574 10.8857 16.3714 10.2717 16.3714 9.51429C16.3714 8.75687 15.7574 8.14286 15 8.14286C14.2426 8.14286 13.6286 8.75687 13.6286 9.51429C13.6286 10.2717 14.2426 10.8857 15 10.8857Z" fill="#E81224"/>
<path fill-rule="evenodd" clip-rule="evenodd" d="M3 15C3 8.37258 8.37258 3 15 3C21.6274 3 27 8.37258 27 15C27 21.6274 21.6274 27 15 27C8.37258 27 3 21.6274 3 15ZM15 5.05714C9.50871 5.05714 5.05714 9.50871 5.05714 15C5.05714 20.4913 9.50871 24.9429 15 24.9429C20.4913 24.9429 24.9429 20.4913 24.9429 15C24.9429 9.50871 20.4913 5.05714 15 5.05714Z" fill="#E81224"/>
</svg>
