<svg width="19" height="18" viewBox="0 0 19 18" fill="none" xmlns="http://www.w3.org/2000/svg">
<g filter="url(#filter0_b_1792_4909)">
<path d="M12.1667 7.22222C12.1667 8.69498 10.9728 9.88889 9.5 9.88889C8.02724 9.88889 6.83333 8.69498 6.83333 7.22222C6.83333 5.74946 8.02724 4.55556 9.5 4.55556C10.9728 4.55556 12.1667 5.74946 12.1667 7.22222Z" fill="#3B3737"/>
<path d="M17.5 9C17.5 13.4183 13.9183 17 9.5 17C5.08172 17 1.5 13.4183 1.5 9C1.5 4.58172 5.08172 1 9.5 1C13.9183 1 17.5 4.58172 17.5 9Z" fill="#3B3737"/>
<path d="M3.38537 14.1589C5.19126 13.1381 7.2776 12.5556 9.5 12.5556C11.7224 12.5556 13.8087 13.1381 15.6146 14.1589M12.1667 7.22222C12.1667 8.69498 10.9728 9.88889 9.5 9.88889C8.02724 9.88889 6.83333 8.69498 6.83333 7.22222C6.83333 5.74946 8.02724 4.55556 9.5 4.55556C10.9728 4.55556 12.1667 5.74946 12.1667 7.22222ZM17.5 9C17.5 13.4183 13.9183 17 9.5 17C5.08172 17 1.5 13.4183 1.5 9C1.5 4.58172 5.08172 1 9.5 1C13.9183 1 17.5 4.58172 17.5 9Z" stroke="white" stroke-width="1.5" stroke-linecap="round" stroke-linejoin="round"/>
</g>
<defs>
<filter id="filter0_b_1792_4909" x="-3.25" y="-3.75" width="25.5" height="25.5" filterUnits="userSpaceOnUse" color-interpolation-filters="sRGB">
<feFlood flood-opacity="0" result="BackgroundImageFix"/>
<feGaussianBlur in="BackgroundImage" stdDeviation="2"/>
<feComposite in2="SourceAlpha" operator="in" result="effect1_backgroundBlur_1792_4909"/>
<feBlend mode="normal" in="SourceGraphic" in2="effect1_backgroundBlur_1792_4909" result="shape"/>
</filter>
</defs>
</svg>
