<svg width="30" height="30" viewBox="0 0 30 30" fill="none" xmlns="http://www.w3.org/2000/svg">
<path d="M10.4924 10.4038C10.8585 10.0377 11.4521 10.0377 11.8182 10.4038L19.6848 18.2704C20.0509 18.6365 20.0509 19.2301 19.6848 19.5962C19.3187 19.9623 18.7251 19.9623 18.3589 19.5962L10.4924 11.7296C10.1263 11.3635 10.1263 10.7699 10.4924 10.4038Z" fill="#E81224"/>
<path fill-rule="evenodd" clip-rule="evenodd" d="M7.26621 22.734C2.99485 18.4626 2.99485 11.5374 7.26621 7.26602C11.5376 2.99466 18.4628 2.99466 22.7342 7.26602C27.0055 11.5374 27.0055 18.4626 22.7342 22.734C18.4628 27.0053 11.5376 27.0053 7.26621 22.734ZM8.59203 8.59184C5.05291 12.131 5.05291 17.869 8.59203 21.4082C12.1312 24.9473 17.8692 24.9473 21.4083 21.4082C24.9475 17.869 24.9475 12.131 21.4083 8.59184C17.8692 5.05272 12.1312 5.05272 8.59203 8.59184Z" fill="#E81224"/>
<path d="M10.4038 19.5079C10.0377 19.1417 10.0377 18.5482 10.4038 18.182L18.2704 10.3155C18.6365 9.94936 19.2301 9.94936 19.5962 10.3155C19.9623 10.6816 19.9623 11.2752 19.5962 11.6413L11.7296 19.5079C11.3635 19.874 10.7699 19.874 10.4038 19.5079Z" fill="#E81224"/>
<path fill-rule="evenodd" clip-rule="evenodd" d="M22.734 22.734C18.4626 27.0054 11.5374 27.0054 7.26602 22.734C2.99466 18.4627 2.99466 11.5374 7.26602 7.26608C11.5374 2.99472 18.4626 2.99472 22.734 7.26608C27.0053 11.5374 27.0053 18.4627 22.734 22.734ZM8.59184 21.4082C12.131 24.9473 17.869 24.9473 21.4082 21.4082C24.9473 17.8691 24.9473 12.131 21.4082 8.5919C17.869 5.05278 12.131 5.05278 8.59184 8.5919C5.05272 12.131 5.05272 17.8691 8.59184 21.4082Z" fill="#E81224"/>
</svg>
