<svg width="36" height="36" viewBox="0 0 36 36" fill="none" xmlns="http://www.w3.org/2000/svg">
<path d="M20.25 14.625C20.25 14.0037 19.7463 13.5 19.125 13.5H10.125C9.50368 13.5 9 14.0037 9 14.625C9 15.2463 9.50368 15.75 10.125 15.75H19.125C19.7463 15.75 20.25 15.2463 20.25 14.625Z" fill="#3B3737"/>
<path d="M18.75 19.125C18.75 18.5037 18.2463 18 17.625 18H10.125C9.50368 18 9 18.5037 9 19.125C9 19.7463 9.50368 20.25 10.125 20.25H17.625C18.2463 20.25 18.75 19.7463 18.75 19.125Z" fill="#3B3737"/>
<path d="M19.125 22.5C19.7463 22.5 20.25 23.0037 20.25 23.625C20.25 24.2463 19.7463 24.75 19.125 24.75H10.125C9.50368 24.75 9 24.2463 9 23.625C9 23.0037 9.50368 22.5 10.125 22.5H19.125Z" fill="#3B3737"/>
<path fill-rule="evenodd" clip-rule="evenodd" d="M9 32.625H28.5C30.7782 32.625 32.625 30.7782 32.625 28.5V20.25C32.625 19.6287 32.1213 19.125 31.5 19.125H26.625V7.41479C26.625 5.27968 24.2117 4.03773 22.4742 5.27874L22.2117 5.46629C21.0409 6.30253 19.4551 6.29972 18.2789 5.45955C16.3231 4.06255 13.6769 4.06255 11.7211 5.45955C10.5449 6.29972 8.95906 6.30253 7.78832 5.46629L7.52575 5.27874C5.78835 4.03773 3.375 5.27969 3.375 7.41479V27C3.375 30.1066 5.8934 32.625 9 32.625ZM13.0289 7.29045C14.2024 6.45225 15.7976 6.45225 16.9711 7.29045C18.9242 8.68549 21.5609 8.69615 23.5195 7.29719L23.782 7.10964C24.0302 6.93235 24.375 7.10977 24.375 7.41479V28.5C24.375 29.1752 24.5372 29.8125 24.8248 30.375H9C7.13604 30.375 5.625 28.864 5.625 27V7.41479C5.625 7.10977 5.96976 6.93235 6.21796 7.10964L6.48054 7.29719C8.43908 8.69615 11.0758 8.68549 13.0289 7.29045ZM26.625 28.5V21.375H30.375V28.5C30.375 29.5355 29.5355 30.375 28.5 30.375C27.4645 30.375 26.625 29.5355 26.625 28.5Z" fill="#3B3737"/>
</svg>
