<svg width="24" height="24" viewBox="0 0 24 24" fill="none" xmlns="http://www.w3.org/2000/svg">
<path fill-rule="evenodd" clip-rule="evenodd" d="M3.4888 6.2367C3.65463 4.81893 4.85586 3.75 6.2833 3.75H17.026C17.2081 3.75 17.384 3.81626 17.5208 3.93641L20.2813 6.3602C20.9019 6.90511 21.2447 7.70008 21.2151 8.52543L20.8711 18.0988C20.8179 19.5781 19.6032 20.75 18.1229 20.75H6.1126C4.78298 20.75 3.66045 19.762 3.49161 18.4432C2.99511 14.565 2.97372 10.6407 3.42792 6.75728L3.4888 6.2367ZM6.2833 5.25C5.61688 5.25 5.05607 5.74905 4.97865 6.41096L4.91776 6.93153C4.47774 10.6937 4.49846 14.4955 4.97946 18.2527C5.05246 18.8229 5.53777 19.25 6.1126 19.25H6.74969V15C6.74969 14.0335 7.5332 13.25 8.49969 13.25H15.4997C16.4662 13.25 17.2497 14.0335 17.2497 15V19.25H18.1229C18.7957 19.25 19.3479 18.7173 19.3721 18.0449L19.7161 8.47157C19.7295 8.09641 19.5737 7.73505 19.2916 7.48737L16.7497 5.2555V7.59998C16.7497 8.56647 15.9662 9.34998 14.9997 9.34998H8.99969C8.0332 9.34998 7.24969 8.56647 7.24969 7.59998V5.25H6.2833ZM8.74969 5.25V7.59998C8.74969 7.73805 8.86162 7.84998 8.99969 7.84998H14.9997C15.1378 7.84998 15.2497 7.73805 15.2497 7.59998V5.25H8.74969ZM15.7497 19.25H8.24969V15C8.24969 14.8619 8.36162 14.75 8.49969 14.75H15.4997C15.6378 14.75 15.7497 14.8619 15.7497 15V19.25Z" fill="#3B3737"/>
</svg>
