<svg width="32" height="32" viewBox="0 0 32 32" fill="none" xmlns="http://www.w3.org/2000/svg">
<path fill-rule="evenodd" clip-rule="evenodd" d="M4.3335 15.9999C4.3335 9.5566 9.55684 4.33325 16.0002 4.33325C22.4435 4.33325 27.6668 9.5566 27.6668 15.9999C27.6668 22.4432 22.4435 27.6666 16.0002 27.6666C9.55684 27.6666 4.3335 22.4432 4.3335 15.9999ZM16.0002 6.33325C10.6614 6.33325 6.3335 10.6612 6.3335 15.9999C6.3335 21.3387 10.6614 25.6666 16.0002 25.6666C21.3389 25.6666 25.6668 21.3387 25.6668 15.9999C25.6668 10.6612 21.3389 6.33325 16.0002 6.33325Z" fill="#638271"/>
<path d="M11.2002 15.6L14.8002 19.2L21.2002 12.8" stroke="#638271" stroke-width="1.8" stroke-linecap="round" stroke-linejoin="round"/>
</svg>
