<svg width="80" height="80" viewBox="0 0 80 80" fill="none" xmlns="http://www.w3.org/2000/svg">
<rect width="80" height="80" fill="white"/>
<path d="M35 50C35 51.3807 33.8807 52.5 32.5 52.5C31.1193 52.5 30 51.3807 30 50C30 48.6193 31.1193 47.5 32.5 47.5C33.8807 47.5 35 48.6193 35 50Z" fill="black"/>
<path d="M50 50C50 51.3807 48.8807 52.5 47.5 52.5C46.1193 52.5 45 51.3807 45 50C45 48.6193 46.1193 47.5 47.5 47.5C48.8807 47.5 50 48.6193 50 50Z" fill="black"/>
<path d="M36.5546 56.25C35.0057 56.25 33.75 57.5057 33.75 59.0546C33.75 59.8183 34.0614 60.549 34.6123 61.0778L35.1774 61.6203C36.2003 62.6023 37.4481 63.2115 38.75 63.448V66.25C38.75 66.9404 39.3096 67.5 40 67.5C40.6904 67.5 41.25 66.9404 41.25 66.25V63.448C42.552 63.2115 43.7997 62.6023 44.8226 61.6203L45.3877 61.0778C45.9386 60.549 46.25 59.8183 46.25 59.0546C46.25 57.5057 44.9943 56.25 43.4454 56.25H36.5546Z" fill="black"/>
<path fill-rule="evenodd" clip-rule="evenodd" d="M40.9615 5.45845C40.733 5.17709 40.3941 5.00989 40.0333 5.00042C39.6725 4.99096 39.3254 5.14017 39.0826 5.40916L33.5562 11.5317L29.165 8.92331C28.5886 8.58096 27.8466 8.76039 27.4874 9.32895L24.719 13.7109H16.4199C15.7835 13.7109 15.2502 14.1957 15.1853 14.8333L14.4068 22.4758L8.32316 25.5341C7.83982 25.7771 7.56805 26.307 7.65107 26.8446L8.75404 33.9864L5.43813 39.3383C5.16706 39.7758 5.19059 40.336 5.49734 40.7489L5.50076 40.7535L5.51852 40.7779C5.53501 40.8007 5.5605 40.8362 5.59367 40.8834C5.66006 40.9778 5.75682 41.1185 5.87328 41.2963C6.10712 41.6534 6.41561 42.1536 6.716 42.7264C7.35242 43.94 7.81284 45.2229 7.73645 46.1462C7.72392 46.2976 7.63784 46.6264 7.42473 47.1784C7.22356 47.6994 6.95718 48.3019 6.66225 48.9682L6.64253 49.0128C6.17398 50.0713 5.63397 51.2912 5.31174 52.3655C5.1484 52.9101 5.01823 53.4886 5.00176 54.0354C4.98578 54.5656 5.0718 55.2561 5.5509 55.816C5.76504 56.0663 6.06882 56.221 6.39587 56.2463L12.8333 56.745L10.9097 62.0728C10.7663 62.4699 10.8318 62.913 11.0838 63.2508C11.3357 63.5886 11.74 63.7753 12.1586 63.7472L19.7224 63.2394C21.6658 70.0673 27.9052 75 35.2315 75H44.7704C51.9458 75 58.0785 70.2684 60.154 63.659L66.3198 65.5697C66.7137 65.6918 67.142 65.609 67.463 65.3488C67.784 65.0885 67.9558 64.6848 67.9216 64.2712L67.3913 57.8622L73.7761 56.4555C74.0378 56.3978 74.274 56.2564 74.4494 56.0523C74.9549 55.4639 75.0201 54.7199 74.9957 54.1789C74.9697 53.6036 74.829 52.9824 74.653 52.3889C74.3044 51.2128 73.7328 49.8773 73.2508 48.751L73.2339 48.7116C72.9564 48.0629 72.7107 47.4881 72.5287 47.008C72.4382 46.7693 72.3703 46.5717 72.3246 46.4138C72.302 46.3357 72.287 46.2747 72.2776 46.229C72.2688 46.1864 72.267 46.1673 72.267 46.1673C72.2057 45.2275 72.6745 43.9339 73.3051 42.7212C73.6035 42.1473 73.9085 41.6466 74.1393 41.2893C74.2543 41.1113 74.3497 40.9705 74.4152 40.876L74.4542 40.82L74.4893 40.7704L74.5069 40.7459L74.51 40.7415C74.8113 40.3291 74.8329 39.7727 74.5638 39.3383L71.2479 33.9864L72.3509 26.8446C72.4339 26.307 72.1621 25.7771 71.6788 25.5341L65.5948 22.4756L64.8166 14.8718C64.7516 14.2365 64.2215 13.7528 63.5874 13.75L55.2848 13.7139L52.5145 9.32896C52.1675 8.7797 51.4601 8.59065 50.8883 8.89441L45.9041 11.5427L40.9615 5.45845ZM28.0295 41.8309C31.2652 39.1313 35.43 37.5 40 37.5C44.57 37.5 48.7348 39.1313 51.9706 41.8309L53.3628 42.9925L53.9532 41.2781C54.4605 39.8053 55.8586 38.75 57.5 38.75C59.5711 38.75 61.25 40.4289 61.25 42.5C61.25 44.4563 59.7511 46.0639 57.8399 46.2349L56.0328 46.3965L56.8276 48.0275C58.1945 50.8323 58.8785 54.023 58.6671 57.3795L58.5265 59.614C58.0703 66.8581 52.0621 72.5 44.8036 72.5H35.1964C27.9379 72.5 21.9297 66.8581 21.4735 59.614L21.3328 57.3795C21.1215 54.023 21.8055 50.8323 23.1724 48.0275L23.9672 46.3965L22.1601 46.2349C20.2489 46.0639 18.75 44.4563 18.75 42.5C18.75 40.4289 20.4289 38.75 22.5 38.75C24.1414 38.75 25.5395 39.8053 26.0468 41.2781L26.6372 42.9925L28.0295 41.8309Z" fill="black"/>
</svg>
